<svg width="274" height="98" viewBox="0 0 274 98" fill="none" xmlns="http://www.w3.org/2000/svg">
<rect x="2" y="2" width="270" height="94" rx="16" stroke="#009B3A" stroke-width="4"/>
<mask id="mask0_302_83" style="mask-type:alpha" maskUnits="userSpaceOnUse" x="4" y="4" width="266" height="90">
<rect x="4" y="4" width="266" height="90" rx="14" fill="#D9D9D9"/>
</mask>
<g mask="url(#mask0_302_83)">
<rect x="202" y="125.133" width="114" height="102" transform="rotate(-41.9 202 125.133)" fill="#009B3A"/>
<path d="M24.7617 34.3848H30.4746L35.4141 45.9512L36.4512 48.8164H36.7852L37.8047 45.9512L42.7441 34.3848H48.457V62H44.1504V46.7949L44.6074 39.7637H44.4141L37.5938 55.3027H35.625L28.6113 39.7637H28.418L29.0684 46.7949V62H24.7617V34.3848ZM53.7129 56.5859C53.7129 54.4297 54.457 52.7891 55.9453 51.6641C57.4453 50.5273 59.6484 49.959 62.5547 49.959H65.0859V48.8691C65.0859 48.2246 65.0098 47.6621 64.8574 47.1816C64.7168 46.6895 64.4824 46.2793 64.1543 45.9512C63.8379 45.623 63.416 45.377 62.8887 45.2129C62.373 45.0371 61.7402 44.9492 60.9902 44.9492C60.4746 44.9492 59.9883 44.9902 59.5312 45.0723C59.0742 45.1543 58.623 45.2656 58.1777 45.4062C57.7324 45.5469 57.2754 45.7168 56.8066 45.916C56.3496 46.1152 55.8633 46.3262 55.3477 46.5488V43.0508C55.8047 42.8281 56.2734 42.6289 56.7539 42.4531C57.2344 42.2773 57.7441 42.1309 58.2832 42.0137C58.8223 41.8848 59.3965 41.791 60.0059 41.7324C60.6152 41.6738 61.2773 41.6445 61.9922 41.6445C64.4648 41.6445 66.3047 42.2715 67.5117 43.5254C68.7305 44.7793 69.3398 46.6074 69.3398 49.0098V57.4297C69.3398 57.8633 69.3398 58.2676 69.3398 58.6426C69.3398 59.0176 69.3516 59.3867 69.375 59.75C69.4102 60.1133 69.4629 60.4824 69.5332 60.8574C69.6035 61.2207 69.709 61.6016 69.8496 62H65.5078C65.3906 61.6836 65.3027 61.3438 65.2441 60.9805C65.1855 60.6172 65.1445 60.248 65.1211 59.873C64.5 60.6465 63.7441 61.2617 62.8535 61.7188C61.9746 62.1758 60.9434 62.4043 59.7598 62.4043C58.8457 62.4043 58.0137 62.2461 57.2637 61.9297C56.5254 61.6133 55.8926 61.1914 55.3652 60.6641C54.8379 60.125 54.4277 59.5039 54.1348 58.8008C53.8535 58.0977 53.7129 57.3594 53.7129 56.5859ZM58.0195 56.0059C58.0195 56.3926 58.0781 56.7734 58.1953 57.1484C58.3125 57.5117 58.4941 57.8398 58.7402 58.1328C58.998 58.4258 59.3262 58.6602 59.7246 58.8359C60.123 59.0117 60.6035 59.0996 61.166 59.0996C61.8809 59.0996 62.5781 58.9531 63.2578 58.6602C63.9375 58.3672 64.5469 57.9219 65.0859 57.3242V52.8242H62.7129C61.834 52.8242 61.0957 52.9004 60.498 53.0527C59.9004 53.2051 59.4141 53.4219 59.0391 53.7031C58.6758 53.9844 58.4121 54.3242 58.248 54.7227C58.0957 55.1094 58.0195 55.5371 58.0195 56.0059ZM78.9551 64.4785V71.1406H74.7012V42.0488H78.4629L78.6914 43.6133C79.2305 43.0273 79.8867 42.5586 80.6602 42.207C81.4453 41.8438 82.4004 41.6621 83.5254 41.6621C84.6738 41.6621 85.7285 41.8789 86.6895 42.3125C87.6621 42.7344 88.5 43.3672 89.2031 44.2109C89.9062 45.0547 90.457 46.1094 90.8555 47.375C91.2539 48.6289 91.4531 50.0879 91.4531 51.752C91.4531 53.5918 91.2188 55.1797 90.75 56.5156C90.2812 57.8516 89.6484 58.959 88.8516 59.8379C88.0547 60.7051 87.1348 61.3496 86.0918 61.7715C85.0488 62.1934 83.959 62.4043 82.8223 62.4043C82.0137 62.4043 81.2871 62.3105 80.6426 62.123C79.998 61.9473 79.4121 61.6895 78.8848 61.3496L78.9551 64.4785ZM78.9551 58.291C79.4121 58.5957 79.8984 58.8066 80.4141 58.9238C80.9297 59.041 81.4805 59.0996 82.0664 59.0996C82.7812 59.0996 83.4434 58.9707 84.0527 58.7129C84.6621 58.4434 85.1836 58.0273 85.6172 57.4648C86.0625 56.8906 86.4082 56.1523 86.6543 55.25C86.9004 54.3477 87.0234 53.2578 87.0234 51.9805C87.0234 50.7617 86.9121 49.7129 86.6895 48.834C86.4668 47.9434 86.1504 47.2109 85.7402 46.6367C85.3418 46.0625 84.8555 45.6406 84.2812 45.3711C83.707 45.0898 83.0625 44.9492 82.3477 44.9492C81.0352 44.9492 79.9043 45.377 78.9551 46.2324V58.291ZM94.459 56.5859C94.459 54.4297 95.2031 52.7891 96.6914 51.6641C98.1914 50.5273 100.395 49.959 103.301 49.959H105.832V48.8691C105.832 48.2246 105.756 47.6621 105.604 47.1816C105.463 46.6895 105.229 46.2793 104.9 45.9512C104.584 45.623 104.162 45.377 103.635 45.2129C103.119 45.0371 102.486 44.9492 101.736 44.9492C101.221 44.9492 100.734 44.9902 100.277 45.0723C99.8203 45.1543 99.3691 45.2656 98.9238 45.4062C98.4785 45.5469 98.0215 45.7168 97.5527 45.916C97.0957 46.1152 96.6094 46.3262 96.0938 46.5488V43.0508C96.5508 42.8281 97.0195 42.6289 97.5 42.4531C97.9805 42.2773 98.4902 42.1309 99.0293 42.0137C99.5684 41.8848 100.143 41.791 100.752 41.7324C101.361 41.6738 102.023 41.6445 102.738 41.6445C105.211 41.6445 107.051 42.2715 108.258 43.5254C109.477 44.7793 110.086 46.6074 110.086 49.0098V57.4297C110.086 57.8633 110.086 58.2676 110.086 58.6426C110.086 59.0176 110.098 59.3867 110.121 59.75C110.156 60.1133 110.209 60.4824 110.279 60.8574C110.35 61.2207 110.455 61.6016 110.596 62H106.254C106.137 61.6836 106.049 61.3438 105.99 60.9805C105.932 60.6172 105.891 60.248 105.867 59.873C105.246 60.6465 104.49 61.2617 103.6 61.7188C102.721 62.1758 101.689 62.4043 100.506 62.4043C99.5918 62.4043 98.7598 62.2461 98.0098 61.9297C97.2715 61.6133 96.6387 61.1914 96.1113 60.6641C95.584 60.125 95.1738 59.5039 94.8809 58.8008C94.5996 58.0977 94.459 57.3594 94.459 56.5859ZM98.7656 56.0059C98.7656 56.3926 98.8242 56.7734 98.9414 57.1484C99.0586 57.5117 99.2402 57.8398 99.4863 58.1328C99.7441 58.4258 100.072 58.6602 100.471 58.8359C100.869 59.0117 101.35 59.0996 101.912 59.0996C102.627 59.0996 103.324 58.9531 104.004 58.6602C104.684 58.3672 105.293 57.9219 105.832 57.3242V52.8242H103.459C102.58 52.8242 101.842 52.9004 101.244 53.0527C100.646 53.2051 100.16 53.4219 99.7852 53.7031C99.4219 53.9844 99.1582 54.3242 98.9941 54.7227C98.8418 55.1094 98.7656 55.5371 98.7656 56.0059ZM137.068 62.3867C135.393 62.3867 133.857 62.1055 132.463 61.543C131.08 60.9688 129.891 60.0957 128.895 58.9238C127.91 57.752 127.143 56.2637 126.592 54.459C126.041 52.6543 125.766 50.5098 125.766 48.0254C125.766 45.6348 126.023 43.5605 126.539 41.8027C127.055 40.0449 127.781 38.5859 128.719 37.4258C129.656 36.2656 130.775 35.4043 132.076 34.8418C133.389 34.2793 134.836 33.998 136.418 33.998C137.109 33.998 137.783 34.0508 138.439 34.1562C139.107 34.25 139.734 34.3906 140.32 34.5781C140.906 34.7539 141.434 34.9648 141.902 35.2109C142.371 35.4453 142.758 35.7031 143.062 35.9844V40.2559C142.207 39.377 141.258 38.7207 140.215 38.2871C139.172 37.8535 138.1 37.6367 136.998 37.6367C135.967 37.6367 135.029 37.8359 134.186 38.2344C133.354 38.6211 132.639 39.2363 132.041 40.0801C131.443 40.9238 130.98 42.0078 130.652 43.332C130.324 44.6445 130.16 46.2207 130.16 48.0605C130.16 49.9355 130.33 51.5469 130.67 52.8945C131.01 54.2422 131.496 55.3496 132.129 56.2168C132.773 57.084 133.547 57.7227 134.449 58.1328C135.363 58.543 136.389 58.748 137.525 58.748C137.971 58.748 138.428 58.7188 138.896 58.6602C139.365 58.5898 139.811 58.4785 140.232 58.3262V50.5918H135.627V47.0586H144.539V59.9609C143.59 60.7578 142.465 61.3613 141.164 61.7715C139.863 62.1816 138.498 62.3867 137.068 62.3867ZM148.67 51.8926C148.67 50.1113 148.91 48.5762 149.391 47.2871C149.883 45.998 150.533 44.9375 151.342 44.1055C152.162 43.2734 153.1 42.6582 154.154 42.2598C155.221 41.8613 156.328 41.6621 157.477 41.6621C158.555 41.6621 159.551 41.8379 160.465 42.1895C161.379 42.5293 162.164 43.0449 162.82 43.7363C163.488 44.4277 164.004 45.2949 164.367 46.3379C164.742 47.3691 164.93 48.5703 164.93 49.9414C164.93 50.5508 164.883 51.1484 164.789 51.7344C164.707 52.3203 164.566 52.8828 164.367 53.4219H153.188C153.328 54.6289 153.568 55.6016 153.908 56.3398C154.248 57.0781 154.664 57.6523 155.156 58.0625C155.648 58.4727 156.199 58.748 156.809 58.8887C157.418 59.0293 158.068 59.0996 158.76 59.0996C159.686 59.0996 160.523 58.9766 161.273 58.7305C162.023 58.4844 162.768 58.1562 163.506 57.7461V61.1211C162.592 61.5898 161.672 61.918 160.746 62.1055C159.832 62.3047 158.918 62.4043 158.004 62.4043C156.562 62.4043 155.262 62.1699 154.102 61.7012C152.953 61.2324 151.975 60.5527 151.166 59.6621C150.369 58.7598 149.754 57.6582 149.32 56.3574C148.887 55.0449 148.67 53.5566 148.67 51.8926ZM160.711 50.5566C160.828 49.7129 160.846 48.9453 160.764 48.2539C160.682 47.5625 160.494 46.9707 160.201 46.4785C159.92 45.9863 159.539 45.6113 159.059 45.3535C158.578 45.084 158.004 44.9492 157.336 44.9492C156.082 44.9492 155.068 45.4297 154.295 46.3906C153.533 47.3398 153.123 48.7285 153.064 50.5566H160.711ZM169.764 42.0488H173.508L173.754 44.3516C174.398 43.5078 175.184 42.8516 176.109 42.3828C177.047 41.9023 178.084 41.6621 179.221 41.6621C179.678 41.6621 179.994 41.7031 180.17 41.7852V46.2324C179.771 46.0332 179.309 45.8984 178.781 45.8281C178.254 45.7578 177.709 45.7695 177.146 45.8633C176.584 45.957 176.027 46.1504 175.477 46.4434C174.938 46.7246 174.451 47.1172 174.018 47.6211V62H169.764V42.0488ZM182.455 56.5859C182.455 54.4297 183.199 52.7891 184.688 51.6641C186.188 50.5273 188.391 49.959 191.297 49.959H193.828V48.8691C193.828 48.2246 193.752 47.6621 193.6 47.1816C193.459 46.6895 193.225 46.2793 192.896 45.9512C192.58 45.623 192.158 45.377 191.631 45.2129C191.115 45.0371 190.482 44.9492 189.732 44.9492C189.217 44.9492 188.73 44.9902 188.273 45.0723C187.816 45.1543 187.365 45.2656 186.92 45.4062C186.475 45.5469 186.018 45.7168 185.549 45.916C185.092 46.1152 184.605 46.3262 184.09 46.5488V43.0508C184.547 42.8281 185.016 42.6289 185.496 42.4531C185.977 42.2773 186.486 42.1309 187.025 42.0137C187.564 41.8848 188.139 41.791 188.748 41.7324C189.357 41.6738 190.02 41.6445 190.734 41.6445C193.207 41.6445 195.047 42.2715 196.254 43.5254C197.473 44.7793 198.082 46.6074 198.082 49.0098V57.4297C198.082 57.8633 198.082 58.2676 198.082 58.6426C198.082 59.0176 198.094 59.3867 198.117 59.75C198.152 60.1133 198.205 60.4824 198.275 60.8574C198.346 61.2207 198.451 61.6016 198.592 62H194.25C194.133 61.6836 194.045 61.3438 193.986 60.9805C193.928 60.6172 193.887 60.248 193.863 59.873C193.242 60.6465 192.486 61.2617 191.596 61.7188C190.717 62.1758 189.686 62.4043 188.502 62.4043C187.588 62.4043 186.756 62.2461 186.006 61.9297C185.268 61.6133 184.635 61.1914 184.107 60.6641C183.58 60.125 183.17 59.5039 182.877 58.8008C182.596 58.0977 182.455 57.3594 182.455 56.5859ZM186.762 56.0059C186.762 56.3926 186.82 56.7734 186.938 57.1484C187.055 57.5117 187.236 57.8398 187.482 58.1328C187.74 58.4258 188.068 58.6602 188.467 58.8359C188.865 59.0117 189.346 59.0996 189.908 59.0996C190.623 59.0996 191.32 58.9531 192 58.6602C192.68 58.3672 193.289 57.9219 193.828 57.3242V52.8242H191.455C190.576 52.8242 189.838 52.9004 189.24 53.0527C188.643 53.2051 188.156 53.4219 187.781 53.7031C187.418 53.9844 187.154 54.3242 186.99 54.7227C186.838 55.1094 186.762 55.5371 186.762 56.0059ZM203.953 31.9238H208.154V62H203.953V31.9238Z" fill="black"/>
<path d="M240.264 48.6667L234.945 53.9863L236.889 55.9721L244.195 48.6667L236.889 41.3613L234.945 43.3471L240.264 48.6667ZM238.667 65.3333C236.361 65.3333 234.194 64.8958 232.167 64.0208C230.139 63.1458 228.375 61.9538 226.875 60.4446C225.375 58.9351 224.188 57.1665 223.313 55.1388C222.438 53.111 222 50.9536 222 48.6667C222 46.3611 222.438 44.1944 223.313 42.1667C224.188 40.1389 225.375 38.375 226.875 36.875C228.375 35.375 230.139 34.1875 232.167 33.3125C234.194 32.4375 236.361 32 238.667 32C240.972 32 243.134 32.4375 245.153 33.3125C247.171 34.1875 248.935 35.375 250.445 36.875C251.954 38.375 253.146 40.1389 254.021 42.1667C254.896 44.1944 255.333 46.3611 255.333 48.6667C255.333 50.9536 254.896 53.111 254.021 55.1388C253.146 57.1665 251.954 58.9351 250.445 60.4446C248.935 61.9538 247.171 63.1458 245.153 64.0208C243.134 64.8958 240.972 65.3333 238.667 65.3333ZM238.667 62.5554C242.519 62.5554 245.796 61.2036 248.5 58.5C251.204 55.7964 252.555 52.5186 252.555 48.6667C252.555 44.7964 251.204 41.514 248.5 38.8196C245.796 36.1251 242.519 34.7779 238.667 34.7779C234.796 34.7779 231.514 36.1251 228.82 38.8196C226.125 41.514 224.778 44.7964 224.778 48.6667C224.778 52.5186 226.125 55.7964 228.82 58.5C231.514 61.2036 234.796 62.5554 238.667 62.5554Z" fill="black"/>
</g>
</svg>
