<svg width="359" height="98" viewBox="0 0 359 98" fill="none" xmlns="http://www.w3.org/2000/svg">
<rect x="2" y="2" width="355" height="94" rx="16" stroke="#009B3A" stroke-width="4"/>
<mask id="mask0_350_161" style="mask-type:alpha" maskUnits="userSpaceOnUse" x="4" y="4" width="351" height="90">
<rect x="4" y="4" width="351" height="90" rx="14" fill="#D9D9D9"/>
</mask>
<g mask="url(#mask0_350_161)">
<rect width="154.254" height="131.77" transform="matrix(0.869715 -0.493555 0.817342 0.576152 261.704 118.992)" fill="#009B3A"/>
<path d="M49.3066 62.3867C47.6426 62.3867 46.1191 62.0996 44.7363 61.5254C43.3535 60.9512 42.1641 60.0781 41.168 58.9062C40.1836 57.7344 39.416 56.252 38.8652 54.459C38.3145 52.666 38.0391 50.5508 38.0391 48.1133C38.0391 45.6875 38.2969 43.5898 38.8125 41.8203C39.3281 40.0391 40.0547 38.5684 40.9922 37.4082C41.9297 36.248 43.0547 35.3926 44.3672 34.8418C45.6797 34.2793 47.1387 33.998 48.7441 33.998C49.3301 33.998 49.9102 34.0332 50.4844 34.1035C51.0586 34.1621 51.5977 34.25 52.1016 34.3672C52.6172 34.4727 53.0801 34.6074 53.4902 34.7715C53.9121 34.9238 54.2578 35.0938 54.5273 35.2812V39.5703C53.7891 38.9023 52.9629 38.416 52.0488 38.1113C51.1465 37.7949 50.2031 37.6367 49.2188 37.6367C48.2109 37.6367 47.2852 37.8359 46.4414 38.2344C45.6094 38.6211 44.8945 39.2363 44.2969 40.0801C43.6992 40.9238 43.2363 42.0078 42.9082 43.332C42.5801 44.6445 42.416 46.2266 42.416 48.0781C42.416 49.9414 42.5859 51.5469 42.9258 52.8945C43.2656 54.2422 43.7578 55.3496 44.4023 56.2168C45.0469 57.084 45.8262 57.7227 46.7402 58.1328C47.6543 58.543 48.6855 58.748 49.834 58.748C50.6777 58.748 51.5215 58.6309 52.3652 58.3965C53.209 58.1504 53.9648 57.7344 54.6328 57.1484V61.0859C54.0586 61.4609 53.3203 61.7715 52.418 62.0176C51.5156 62.2637 50.4785 62.3867 49.3066 62.3867ZM57.5156 52.0684C57.5156 50.3926 57.7324 48.9102 58.166 47.6211C58.5996 46.3203 59.2031 45.2305 59.9766 44.3516C60.7617 43.4727 61.6934 42.8047 62.7715 42.3477C63.8496 41.8906 65.0332 41.6621 66.3223 41.6621C67.5996 41.6621 68.7773 41.8848 69.8555 42.3301C70.9336 42.7754 71.8652 43.4316 72.6504 44.2988C73.4355 45.166 74.0449 46.2441 74.4785 47.5332C74.9238 48.8105 75.1465 50.2871 75.1465 51.9629C75.1465 53.6387 74.9238 55.127 74.4785 56.4277C74.0449 57.7285 73.4355 58.8242 72.6504 59.7148C71.877 60.5938 70.9453 61.2617 69.8555 61.7188C68.7773 62.1758 67.5996 62.4043 66.3223 62.4043C65.0332 62.4043 63.8496 62.1816 62.7715 61.7363C61.6934 61.2793 60.7617 60.6172 59.9766 59.75C59.2031 58.8711 58.5996 57.793 58.166 56.5156C57.7324 55.2266 57.5156 53.7441 57.5156 52.0684ZM66.3223 59.0996C66.9902 59.0996 67.5938 58.9648 68.1328 58.6953C68.6836 58.4141 69.1523 57.9863 69.5391 57.4121C69.9375 56.8262 70.2422 56.082 70.4531 55.1797C70.6758 54.2773 70.7871 53.2051 70.7871 51.9629C70.7871 50.7207 70.6758 49.6602 70.4531 48.7812C70.2422 47.8906 69.9375 47.1641 69.5391 46.6016C69.1523 46.0273 68.6836 45.6113 68.1328 45.3535C67.5938 45.084 66.9902 44.9492 66.3223 44.9492C65.666 44.9492 65.0625 45.0898 64.5117 45.3711C63.9609 45.6406 63.4863 46.0684 63.0879 46.6543C62.7012 47.2285 62.3965 47.9668 62.1738 48.8691C61.9629 49.7598 61.8574 50.8262 61.8574 52.0684C61.8574 53.3105 61.9629 54.377 62.1738 55.2676C62.3965 56.1465 62.7012 56.873 63.0879 57.4473C63.4863 58.0098 63.9609 58.4258 64.5117 58.6953C65.0625 58.9648 65.666 59.0996 66.3223 59.0996ZM79.7871 42.0488H83.5312L83.7773 44.2812C84.3867 43.4961 85.166 42.8633 86.1152 42.3828C87.0762 41.9023 88.248 41.6621 89.6309 41.6621C91.6816 41.6621 93.2695 42.2891 94.3945 43.543C95.5195 44.7969 96.082 46.7129 96.082 49.291V62H91.8281V49.4316C91.8281 47.9082 91.5352 46.7832 90.9492 46.0566C90.3633 45.3184 89.5371 44.9492 88.4707 44.9492C87.5918 44.9492 86.7715 45.1367 86.0098 45.5117C85.248 45.875 84.5918 46.4375 84.041 47.1992V62H79.7871V42.0488ZM102.621 45.1602H100.564V42.0488H102.621V38.1465C102.621 37.1855 102.756 36.3125 103.025 35.5273C103.295 34.7305 103.693 34.0508 104.221 33.4883C104.76 32.9258 105.428 32.4922 106.225 32.1875C107.021 31.8711 107.947 31.7129 109.002 31.7129C109.271 31.7129 109.547 31.7246 109.828 31.748C110.121 31.7715 110.35 31.8008 110.514 31.8359V35.2461C110.127 35.0703 109.717 34.9824 109.283 34.9824C108.498 34.9824 107.895 35.2168 107.473 35.6855C107.051 36.1426 106.84 36.793 106.84 37.6367V42.0488H110.057V45.1602H106.84V62H102.621V45.1602ZM116.578 37.6543C116.156 37.6543 115.775 37.5898 115.436 37.4609C115.096 37.332 114.803 37.1504 114.557 36.916C114.311 36.6816 114.123 36.4004 113.994 36.0723C113.865 35.7441 113.801 35.3809 113.801 34.9824C113.801 34.584 113.865 34.2266 113.994 33.9102C114.123 33.582 114.311 33.3008 114.557 33.0664C114.803 32.832 115.096 32.6504 115.436 32.5215C115.775 32.3926 116.156 32.3281 116.578 32.3281C117.445 32.3281 118.131 32.5742 118.635 33.0664C119.15 33.5469 119.408 34.1855 119.408 34.9824C119.408 35.7793 119.15 36.4238 118.635 36.916C118.131 37.4082 117.445 37.6543 116.578 37.6543ZM114.469 42.0488H118.688V62H114.469V42.0488ZM123.785 65.5332C123.785 64.4902 124.066 63.6465 124.629 63.002C125.203 62.3691 125.959 61.8652 126.896 61.4902C126.357 61.1504 125.936 60.6875 125.631 60.1016C125.326 59.5039 125.168 58.877 125.156 58.2207C125.145 57.459 125.367 56.7383 125.824 56.0586C126.293 55.3672 126.955 54.8223 127.811 54.4238C126.709 53.8613 125.83 53.0762 125.174 52.0684C124.518 51.0605 124.189 49.8477 124.189 48.4297C124.189 47.3398 124.4 46.3789 124.822 45.5469C125.244 44.7031 125.807 43.9941 126.51 43.4199C127.225 42.8457 128.051 42.4121 128.988 42.1191C129.938 41.8145 130.939 41.6621 131.994 41.6621C133.025 41.6621 133.992 41.7969 134.895 42.0664C135.809 42.3242 136.623 42.7051 137.338 43.209C137.666 42.6465 138.111 42.248 138.674 42.0137C139.236 41.7793 139.852 41.6621 140.52 41.6621H142.225V44.8262H141.258C140.918 44.8262 140.566 44.8555 140.203 44.9141C139.84 44.9727 139.506 45.0664 139.201 45.1953C139.506 45.6875 139.734 46.2324 139.887 46.8301C140.051 47.416 140.133 48.0488 140.133 48.7285C140.133 49.8184 139.922 50.7793 139.5 51.6113C139.09 52.4434 138.527 53.1465 137.812 53.7207C137.098 54.2832 136.266 54.7109 135.316 55.0039C134.379 55.2852 133.383 55.4258 132.328 55.4258C132.07 55.4258 131.812 55.4199 131.555 55.4082C131.309 55.3848 131.068 55.3613 130.834 55.3379C130.295 55.4434 129.879 55.6602 129.586 55.9883C129.305 56.3047 129.164 56.7441 129.164 57.3066C129.164 57.8223 129.281 58.2266 129.516 58.5195C129.762 58.8125 130.078 59.0293 130.465 59.1699C130.852 59.3105 131.279 59.3984 131.748 59.4336C132.229 59.457 132.703 59.4688 133.172 59.4688C133.898 59.4688 134.613 59.4922 135.316 59.5391C136.031 59.5742 136.705 59.6621 137.338 59.8027C137.971 59.9316 138.551 60.1191 139.078 60.3652C139.617 60.5996 140.08 60.9219 140.467 61.332C140.865 61.7422 141.17 62.2461 141.381 62.8438C141.604 63.4414 141.715 64.1562 141.715 64.9883C141.715 65.8906 141.521 66.7168 141.135 67.4668C140.76 68.2168 140.191 68.8613 139.43 69.4004C138.668 69.9512 137.719 70.3789 136.582 70.6836C135.457 70.9883 134.139 71.1406 132.627 71.1406C131.104 71.1406 129.785 71 128.672 70.7188C127.57 70.4492 126.656 70.0625 125.93 69.5586C125.203 69.0664 124.664 68.4746 124.312 67.7832C123.961 67.1035 123.785 66.3535 123.785 65.5332ZM132.135 52.3145C133.377 52.3145 134.332 52.0215 135 51.4355C135.68 50.8379 136.02 49.8828 136.02 48.5703C136.02 47.2578 135.674 46.2969 134.982 45.6875C134.291 45.0781 133.359 44.7734 132.188 44.7734C130.945 44.7734 129.99 45.084 129.322 45.7051C128.654 46.3145 128.32 47.2754 128.32 48.5879C128.32 49.2441 128.408 49.8125 128.584 50.293C128.76 50.7617 129.012 51.1484 129.34 51.4531C129.668 51.7461 130.066 51.9629 130.535 52.1035C131.004 52.2441 131.537 52.3145 132.135 52.3145ZM127.916 65.0059C127.916 65.4277 128.004 65.8203 128.18 66.1836C128.355 66.5586 128.637 66.8809 129.023 67.1504C129.422 67.4316 129.932 67.6484 130.553 67.8008C131.186 67.9648 131.959 68.0469 132.873 68.0469C134.467 68.0469 135.65 67.7832 136.424 67.2559C137.209 66.7285 137.602 66.0254 137.602 65.1465C137.602 64.584 137.455 64.1387 137.162 63.8105C136.881 63.4824 136.494 63.2305 136.002 63.0547C135.521 62.8906 134.965 62.7852 134.332 62.7383C133.699 62.6914 133.043 62.668 132.363 62.668C132 62.668 131.59 62.6562 131.133 62.6328C130.688 62.6211 130.266 62.6035 129.867 62.5801C129.422 62.6738 129.07 62.8086 128.812 62.9844C128.555 63.1719 128.361 63.3711 128.232 63.582C128.104 63.8047 128.016 64.0391 127.969 64.2852C127.934 64.5312 127.916 64.7715 127.916 65.0059ZM146.162 42.0488H150.416V54.5996C150.416 56.123 150.668 57.2539 151.172 57.9922C151.676 58.7305 152.502 59.0996 153.65 59.0996C154.424 59.0996 155.15 58.9297 155.83 58.5898C156.51 58.2383 157.102 57.6992 157.605 56.9727V42.0488H161.859V62H158.08L157.852 59.8906C157.301 60.6523 156.592 61.2617 155.725 61.7188C154.857 62.1758 153.762 62.4043 152.438 62.4043C150.363 62.4043 148.799 61.7773 147.744 60.5234C146.689 59.2578 146.162 57.3301 146.162 54.7402V42.0488ZM167.854 42.0488H171.598L171.844 44.3516C172.488 43.5078 173.273 42.8516 174.199 42.3828C175.137 41.9023 176.174 41.6621 177.311 41.6621C177.768 41.6621 178.084 41.7031 178.26 41.7852V46.2324C177.861 46.0332 177.398 45.8984 176.871 45.8281C176.344 45.7578 175.799 45.7695 175.236 45.8633C174.674 45.957 174.117 46.1504 173.566 46.4434C173.027 46.7246 172.541 47.1172 172.107 47.6211V62H167.854V42.0488ZM180.545 56.5859C180.545 54.4297 181.289 52.7891 182.777 51.6641C184.277 50.5273 186.48 49.959 189.387 49.959H191.918V48.8691C191.918 48.2246 191.842 47.6621 191.689 47.1816C191.549 46.6895 191.314 46.2793 190.986 45.9512C190.67 45.623 190.248 45.377 189.721 45.2129C189.205 45.0371 188.572 44.9492 187.822 44.9492C187.307 44.9492 186.82 44.9902 186.363 45.0723C185.906 45.1543 185.455 45.2656 185.01 45.4062C184.564 45.5469 184.107 45.7168 183.639 45.916C183.182 46.1152 182.695 46.3262 182.18 46.5488V43.0508C182.637 42.8281 183.105 42.6289 183.586 42.4531C184.066 42.2773 184.576 42.1309 185.115 42.0137C185.654 41.8848 186.229 41.791 186.838 41.7324C187.447 41.6738 188.109 41.6445 188.824 41.6445C191.297 41.6445 193.137 42.2715 194.344 43.5254C195.562 44.7793 196.172 46.6074 196.172 49.0098V57.4297C196.172 57.8633 196.172 58.2676 196.172 58.6426C196.172 59.0176 196.184 59.3867 196.207 59.75C196.242 60.1133 196.295 60.4824 196.365 60.8574C196.436 61.2207 196.541 61.6016 196.682 62H192.34C192.223 61.6836 192.135 61.3438 192.076 60.9805C192.018 60.6172 191.977 60.248 191.953 59.873C191.332 60.6465 190.576 61.2617 189.686 61.7188C188.807 62.1758 187.775 62.4043 186.592 62.4043C185.678 62.4043 184.846 62.2461 184.096 61.9297C183.357 61.6133 182.725 61.1914 182.197 60.6641C181.67 60.125 181.26 59.5039 180.967 58.8008C180.686 58.0977 180.545 57.3594 180.545 56.5859ZM184.852 56.0059C184.852 56.3926 184.91 56.7734 185.027 57.1484C185.145 57.5117 185.326 57.8398 185.572 58.1328C185.83 58.4258 186.158 58.6602 186.557 58.8359C186.955 59.0117 187.436 59.0996 187.998 59.0996C188.713 59.0996 189.41 58.9531 190.09 58.6602C190.77 58.3672 191.379 57.9219 191.918 57.3242V52.8242H189.545C188.666 52.8242 187.928 52.9004 187.33 53.0527C186.732 53.2051 186.246 53.4219 185.871 53.7031C185.508 53.9844 185.244 54.3242 185.08 54.7227C184.928 55.1094 184.852 55.5371 184.852 56.0059ZM206.859 62.0352C205.898 61.7656 205.025 61.3496 204.24 60.7871C203.467 60.2246 202.805 59.5273 202.254 58.6953C201.715 57.8516 201.293 56.8789 200.988 55.7773C200.695 54.6758 200.549 53.4453 200.549 52.0859C200.549 50.3984 200.754 48.9102 201.164 47.6211C201.574 46.3203 202.172 45.2305 202.957 44.3516C203.754 43.4727 204.721 42.8047 205.857 42.3477C206.994 41.8906 208.295 41.6621 209.76 41.6621C210.709 41.6621 211.576 41.75 212.361 41.9258C213.146 42.0898 213.885 42.3418 214.576 42.6816L214.559 46.7949C213.855 46.1152 213.111 45.6582 212.326 45.4238C211.541 45.1777 210.744 45.0547 209.936 45.0547C208.295 45.0547 207.053 45.6113 206.209 46.7246C205.377 47.8379 204.961 49.5605 204.961 51.8926C204.961 54.3301 205.406 56.1406 206.297 57.3242C207.199 58.5078 208.506 59.0996 210.217 59.0996C211.061 59.0996 211.852 58.9648 212.59 58.6953C213.34 58.4141 214.049 57.9746 214.717 57.377V60.9453C213.908 61.4375 213.111 61.7949 212.326 62.0176C211.553 62.252 210.703 62.3809 209.777 62.4043L209.566 63.8984C210.738 63.9219 211.646 64.1797 212.291 64.6719C212.936 65.1758 213.258 65.9023 213.258 66.8516C213.258 67.4492 213.111 68.0059 212.818 68.5215C212.525 69.0371 212.068 69.4883 211.447 69.875C210.838 70.2617 210.064 70.5605 209.127 70.7715C208.189 70.9941 207.07 71.1055 205.77 71.1055V68.7148C207.141 68.668 208.137 68.4805 208.758 68.1523C209.379 67.8359 209.689 67.4434 209.689 66.9746C209.689 66.5996 209.566 66.3008 209.32 66.0781C209.086 65.8555 208.67 65.7441 208.072 65.7441C207.322 65.7441 206.602 65.8906 205.91 66.1836L206.859 62.0352ZM217.424 56.5859C217.424 54.4297 218.168 52.7891 219.656 51.6641C221.156 50.5273 223.359 49.959 226.266 49.959H228.797V48.8691C228.797 48.2246 228.721 47.6621 228.568 47.1816C228.428 46.6895 228.193 46.2793 227.865 45.9512C227.549 45.623 227.127 45.377 226.6 45.2129C226.084 45.0371 225.451 44.9492 224.701 44.9492C224.186 44.9492 223.699 44.9902 223.242 45.0723C222.785 45.1543 222.334 45.2656 221.889 45.4062C221.443 45.5469 220.986 45.7168 220.518 45.916C220.061 46.1152 219.574 46.3262 219.059 46.5488V43.0508C219.516 42.8281 219.984 42.6289 220.465 42.4531C220.945 42.2773 221.455 42.1309 221.994 42.0137C222.533 41.8848 223.107 41.791 223.717 41.7324C224.326 41.6738 224.988 41.6445 225.703 41.6445C228.176 41.6445 230.016 42.2715 231.223 43.5254C232.441 44.7793 233.051 46.6074 233.051 49.0098V57.4297C233.051 57.8633 233.051 58.2676 233.051 58.6426C233.051 59.0176 233.062 59.3867 233.086 59.75C233.121 60.1133 233.174 60.4824 233.244 60.8574C233.314 61.2207 233.42 61.6016 233.561 62H229.219C229.102 61.6836 229.014 61.3438 228.955 60.9805C228.896 60.6172 228.855 60.248 228.832 59.873C228.211 60.6465 227.455 61.2617 226.564 61.7188C225.686 62.1758 224.654 62.4043 223.471 62.4043C222.557 62.4043 221.725 62.2461 220.975 61.9297C220.236 61.6133 219.604 61.1914 219.076 60.6641C218.549 60.125 218.139 59.5039 217.846 58.8008C217.564 58.0977 217.424 57.3594 217.424 56.5859ZM221.73 56.0059C221.73 56.3926 221.789 56.7734 221.906 57.1484C222.023 57.5117 222.205 57.8398 222.451 58.1328C222.709 58.4258 223.037 58.6602 223.436 58.8359C223.834 59.0117 224.314 59.0996 224.877 59.0996C225.592 59.0996 226.289 58.9531 226.969 58.6602C227.648 58.3672 228.258 57.9219 228.797 57.3242V52.8242H226.424C225.545 52.8242 224.807 52.9004 224.209 53.0527C223.611 53.2051 223.125 53.4219 222.75 53.7031C222.387 53.9844 222.123 54.3242 221.959 54.7227C221.807 55.1094 221.73 55.5371 221.73 56.0059ZM227.936 37.4961C227.338 37.4961 226.822 37.3965 226.389 37.1973C225.967 36.9863 225.568 36.7578 225.193 36.5117C224.83 36.2539 224.461 36.0254 224.086 35.8262C223.711 35.6152 223.271 35.5098 222.768 35.5098C222.287 35.5098 221.854 35.6504 221.467 35.9316C221.08 36.2012 220.799 36.6348 220.623 37.2324H218.777C218.918 36.2715 219.129 35.457 219.41 34.7891C219.691 34.1094 220.02 33.5645 220.395 33.1543C220.781 32.7324 221.203 32.4277 221.66 32.2402C222.129 32.0527 222.621 31.959 223.137 31.959C223.734 31.959 224.244 32.0645 224.666 32.2754C225.088 32.4746 225.48 32.7031 225.844 32.9609C226.219 33.207 226.594 33.4355 226.969 33.6465C227.344 33.8457 227.783 33.9453 228.287 33.9453C228.768 33.9453 229.201 33.8164 229.588 33.5586C229.975 33.2891 230.256 32.8438 230.432 32.2227H232.277C232.137 33.1953 231.926 34.0156 231.645 34.6836C231.363 35.3516 231.029 35.8965 230.643 36.3184C230.268 36.7285 229.846 37.0273 229.377 37.2148C228.92 37.4023 228.439 37.4961 227.936 37.4961ZM237.586 52.0684C237.586 50.3926 237.803 48.9102 238.236 47.6211C238.67 46.3203 239.273 45.2305 240.047 44.3516C240.832 43.4727 241.764 42.8047 242.842 42.3477C243.92 41.8906 245.104 41.6621 246.393 41.6621C247.67 41.6621 248.848 41.8848 249.926 42.3301C251.004 42.7754 251.936 43.4316 252.721 44.2988C253.506 45.166 254.115 46.2441 254.549 47.5332C254.994 48.8105 255.217 50.2871 255.217 51.9629C255.217 53.6387 254.994 55.127 254.549 56.4277C254.115 57.7285 253.506 58.8242 252.721 59.7148C251.947 60.5938 251.016 61.2617 249.926 61.7188C248.848 62.1758 247.67 62.4043 246.393 62.4043C245.104 62.4043 243.92 62.1816 242.842 61.7363C241.764 61.2793 240.832 60.6172 240.047 59.75C239.273 58.8711 238.67 57.793 238.236 56.5156C237.803 55.2266 237.586 53.7441 237.586 52.0684ZM246.393 59.0996C247.061 59.0996 247.664 58.9648 248.203 58.6953C248.754 58.4141 249.223 57.9863 249.609 57.4121C250.008 56.8262 250.312 56.082 250.523 55.1797C250.746 54.2773 250.857 53.2051 250.857 51.9629C250.857 50.7207 250.746 49.6602 250.523 48.7812C250.312 47.8906 250.008 47.1641 249.609 46.6016C249.223 46.0273 248.754 45.6113 248.203 45.3535C247.664 45.084 247.061 44.9492 246.393 44.9492C245.736 44.9492 245.133 45.0898 244.582 45.3711C244.031 45.6406 243.557 46.0684 243.158 46.6543C242.771 47.2285 242.467 47.9668 242.244 48.8691C242.033 49.7598 241.928 50.8262 241.928 52.0684C241.928 53.3105 242.033 54.377 242.244 55.2676C242.467 56.1465 242.771 56.873 243.158 57.4473C243.557 58.0098 244.031 58.4258 244.582 58.6953C245.133 58.9648 245.736 59.0996 246.393 59.0996Z" fill="black"/>
<mask id="mask1_350_161" style="mask-type:alpha" maskUnits="userSpaceOnUse" x="284" y="32" width="40" height="40">
<rect x="284" y="32" width="40" height="40" fill="black"/>
</mask>
<g mask="url(#mask1_350_161)">
<path d="M309.073 52.0705L303.754 57.3901L305.698 59.3759L313.004 52.0705L305.698 44.7651L303.754 46.7509L309.073 52.0705ZM307.476 68.7371C305.17 68.7371 303.004 68.2996 300.976 67.4246C298.948 66.5496 297.184 65.3576 295.684 63.8484C294.184 62.3389 292.997 60.5703 292.122 58.5426C291.247 56.5148 290.809 54.3574 290.809 52.0705C290.809 49.7649 291.247 47.5983 292.122 45.5705C292.997 43.5427 294.184 41.7788 295.684 40.2788C297.184 38.7788 298.948 37.5913 300.976 36.7163C303.004 35.8413 305.17 35.4038 307.476 35.4038C309.781 35.4038 311.943 35.8413 313.962 36.7163C315.98 37.5913 317.744 38.7788 319.254 40.2788C320.763 41.7788 321.955 43.5427 322.83 45.5705C323.705 47.5983 324.142 49.7649 324.142 52.0705C324.142 54.3574 323.705 56.5148 322.83 58.5426C321.955 60.5703 320.763 62.3389 319.254 63.8484C317.744 65.3576 315.98 66.5496 313.962 67.4246C311.943 68.2996 309.781 68.7371 307.476 68.7371ZM307.476 65.9592C311.328 65.9592 314.605 64.6074 317.309 61.9038C320.013 59.2002 321.365 55.9224 321.365 52.0705C321.365 48.2002 320.013 44.9178 317.309 42.2234C314.605 39.5289 311.328 38.1817 307.476 38.1817C303.605 38.1817 300.323 39.5289 297.629 42.2234C294.934 44.9178 293.587 48.2002 293.587 52.0705C293.587 55.9224 294.934 59.2002 297.629 61.9038C300.323 64.6074 303.605 65.9592 307.476 65.9592Z" fill="black"/>
</g>
</g>
</svg>
