<svg width="230" height="98" viewBox="0 0 230 98" fill="none" xmlns="http://www.w3.org/2000/svg">
<rect x="2" y="2" width="226" height="94" rx="16" stroke="#009B3A" stroke-width="4"/>
<mask id="mask0_306_100" style="mask-type:alpha" maskUnits="userSpaceOnUse" x="4" y="4" width="222" height="90">
<rect x="4" y="4" width="222" height="90" rx="14" fill="#D9D9D9"/>
</mask>
<g mask="url(#mask0_306_100)">
<rect x="166.992" y="118.992" width="114" height="102" transform="rotate(-41.9 166.992 118.992)" fill="#009B3A"/>
<mask id="mask1_306_100" style="mask-type:alpha" maskUnits="userSpaceOnUse" x="152" y="28" width="42" height="41">
<rect x="152.66" y="28.5" width="40.6383" height="40" fill="black"/>
</mask>
<g mask="url(#mask1_306_100)">
<path d="M174.601 48.5002L169.197 53.8197L171.173 55.8056L178.595 48.5002L171.173 41.1947L169.197 43.1806L174.601 48.5002ZM172.979 65.1668C170.637 65.1668 168.435 64.7293 166.375 63.8543C164.315 62.9793 162.523 61.7872 160.999 60.2781C159.475 58.7686 158.269 57 157.38 54.9722C156.491 52.9445 156.046 50.7871 156.046 48.5002C156.046 46.1946 156.491 44.0279 157.38 42.0002C158.269 39.9724 159.475 38.2085 160.999 36.7085C162.523 35.2085 164.315 34.021 166.375 33.146C168.435 32.271 170.637 31.8335 172.979 31.8335C175.321 31.8335 177.518 32.271 179.569 33.146C181.619 34.021 183.411 35.2085 184.945 36.7085C186.478 38.2085 187.689 39.9724 188.578 42.0002C189.467 44.0279 189.912 46.1946 189.912 48.5002C189.912 50.7871 189.467 52.9445 188.578 54.9722C187.689 57 186.478 58.7686 184.945 60.2781C183.411 61.7872 181.619 62.9793 179.569 63.8543C177.518 64.7293 175.321 65.1668 172.979 65.1668ZM172.979 62.3889C176.892 62.3889 180.222 61.0371 182.969 58.3335C185.716 55.6299 187.089 52.3521 187.089 48.5002C187.089 44.6299 185.716 41.3475 182.969 38.6531C180.222 35.9586 176.892 34.6114 172.979 34.6114C169.047 34.6114 165.712 35.9586 162.975 38.6531C160.237 41.3475 158.869 44.6299 158.869 48.5002C158.869 52.3521 160.237 55.6299 162.975 58.3335C165.712 61.0371 169.047 62.3889 172.979 62.3889Z" fill="black"/>
</g>
<path d="M39.4258 56.832C40.4453 57.5352 41.4238 58.0273 42.3613 58.3086C43.3105 58.5898 44.2363 58.7305 45.1387 58.7305C45.9355 58.7305 46.6094 58.6367 47.1602 58.4492C47.7109 58.25 48.1504 57.998 48.4785 57.6934C48.8184 57.377 49.0586 57.0254 49.1992 56.6387C49.3516 56.2402 49.4277 55.8418 49.4277 55.4434C49.4277 54.7988 49.2812 54.2129 48.9883 53.6855C48.6953 53.1582 48.3086 52.6543 47.8281 52.1738C47.3594 51.6934 46.8203 51.2305 46.2109 50.7852C45.6133 50.3398 44.998 49.877 44.3652 49.3965C43.7324 48.916 43.1113 48.4121 42.502 47.8848C41.8926 47.3457 41.3477 46.7539 40.8672 46.1094C40.3984 45.4531 40.0176 44.7324 39.7246 43.9473C39.4434 43.1504 39.3027 42.2598 39.3027 41.2754C39.3027 40.1504 39.4961 39.1426 39.8828 38.252C40.2812 37.3496 40.8262 36.5879 41.5176 35.9668C42.209 35.3457 43.0293 34.8711 43.9785 34.543C44.9277 34.2031 45.959 34.0332 47.0723 34.0332C47.9629 34.0332 48.8535 34.1328 49.7441 34.332C50.6348 34.5195 51.4082 34.7773 52.0645 35.1055L52.0469 39.1836C51.2031 38.6328 50.4062 38.2402 49.6562 38.0059C48.9062 37.7715 48.1621 37.6543 47.4238 37.6543C46.7676 37.6543 46.1934 37.7422 45.7012 37.918C45.2207 38.0938 44.8164 38.334 44.4883 38.6387C44.1719 38.9434 43.9316 39.3008 43.7676 39.7109C43.6152 40.1094 43.5391 40.543 43.5391 41.0117C43.5391 41.6914 43.6797 42.3066 43.9609 42.8574C44.2539 43.3965 44.6348 43.9062 45.1035 44.3867C45.584 44.8672 46.1289 45.3301 46.7383 45.7754C47.3477 46.209 47.9629 46.6602 48.584 47.1289C49.2168 47.5977 49.8379 48.0898 50.4473 48.6055C51.0566 49.1211 51.5957 49.6953 52.0645 50.3281C52.5449 50.9492 52.9258 51.6465 53.207 52.4199C53.5 53.1934 53.6465 54.0664 53.6465 55.0391C53.6465 56.1289 53.4531 57.125 53.0664 58.0273C52.6914 58.9297 52.1465 59.7031 51.4316 60.3477C50.7285 60.9922 49.8672 61.4961 48.8477 61.8594C47.8398 62.2109 46.709 62.3867 45.4551 62.3867C44.9395 62.3867 44.4062 62.3516 43.8555 62.2812C43.3047 62.2227 42.7598 62.1348 42.2207 62.0176C41.6934 61.9004 41.1836 61.7598 40.6914 61.5957C40.2109 61.4199 39.7832 61.2207 39.4082 60.998L39.4258 56.832ZM59.4824 45.1602H57.3379V42.0488H59.5879L60.0273 36.002H63.7012V42.0488H67.3926V45.1602H63.7012V56.5156C63.7012 56.9609 63.748 57.3301 63.8418 57.623C63.9473 57.9043 64.0938 58.127 64.2812 58.291C64.4805 58.4551 64.709 58.5723 64.9668 58.6426C65.2363 58.7129 65.541 58.748 65.8809 58.748C66.3848 58.748 66.8008 58.7012 67.1289 58.6074C67.457 58.5137 67.7441 58.4199 67.9902 58.3262V61.8066C67.5918 61.9473 67.1406 62.082 66.6367 62.2109C66.1445 62.3398 65.5234 62.4043 64.7734 62.4043C63.9531 62.4043 63.2148 62.2871 62.5586 62.0527C61.9141 61.8301 61.3633 61.4844 60.9062 61.0156C60.4492 60.5469 60.0977 59.9551 59.8516 59.2402C59.6055 58.5254 59.4824 57.6816 59.4824 56.709V45.1602ZM70.627 56.5859C70.627 54.4297 71.3711 52.7891 72.8594 51.6641C74.3594 50.5273 76.5625 49.959 79.4688 49.959H82V48.8691C82 48.2246 81.9238 47.6621 81.7715 47.1816C81.6309 46.6895 81.3965 46.2793 81.0684 45.9512C80.752 45.623 80.3301 45.377 79.8027 45.2129C79.2871 45.0371 78.6543 44.9492 77.9043 44.9492C77.3887 44.9492 76.9023 44.9902 76.4453 45.0723C75.9883 45.1543 75.5371 45.2656 75.0918 45.4062C74.6465 45.5469 74.1895 45.7168 73.7207 45.916C73.2637 46.1152 72.7773 46.3262 72.2617 46.5488V43.0508C72.7188 42.8281 73.1875 42.6289 73.668 42.4531C74.1484 42.2773 74.6582 42.1309 75.1973 42.0137C75.7363 41.8848 76.3105 41.791 76.9199 41.7324C77.5293 41.6738 78.1914 41.6445 78.9062 41.6445C81.3789 41.6445 83.2188 42.2715 84.4258 43.5254C85.6445 44.7793 86.2539 46.6074 86.2539 49.0098V57.4297C86.2539 57.8633 86.2539 58.2676 86.2539 58.6426C86.2539 59.0176 86.2656 59.3867 86.2891 59.75C86.3242 60.1133 86.377 60.4824 86.4473 60.8574C86.5176 61.2207 86.623 61.6016 86.7637 62H82.4219C82.3047 61.6836 82.2168 61.3438 82.1582 60.9805C82.0996 60.6172 82.0586 60.248 82.0352 59.873C81.4141 60.6465 80.6582 61.2617 79.7676 61.7188C78.8887 62.1758 77.8574 62.4043 76.6738 62.4043C75.7598 62.4043 74.9277 62.2461 74.1777 61.9297C73.4395 61.6133 72.8066 61.1914 72.2793 60.6641C71.752 60.125 71.3418 59.5039 71.0488 58.8008C70.7676 58.0977 70.627 57.3594 70.627 56.5859ZM74.9336 56.0059C74.9336 56.3926 74.9922 56.7734 75.1094 57.1484C75.2266 57.5117 75.4082 57.8398 75.6543 58.1328C75.9121 58.4258 76.2402 58.6602 76.6387 58.8359C77.0371 59.0117 77.5176 59.0996 78.0801 59.0996C78.7949 59.0996 79.4922 58.9531 80.1719 58.6602C80.8516 58.3672 81.4609 57.9219 82 57.3242V52.8242H79.627C78.748 52.8242 78.0098 52.9004 77.4121 53.0527C76.8145 53.2051 76.3281 53.4219 75.9531 53.7031C75.5898 53.9844 75.3262 54.3242 75.1621 54.7227C75.0098 55.1094 74.9336 55.5371 74.9336 56.0059ZM92.9863 45.1602H90.8418V42.0488H93.0918L93.5312 36.002H97.2051V42.0488H100.896V45.1602H97.2051V56.5156C97.2051 56.9609 97.252 57.3301 97.3457 57.623C97.4512 57.9043 97.5977 58.127 97.7852 58.291C97.9844 58.4551 98.2129 58.5723 98.4707 58.6426C98.7402 58.7129 99.0449 58.748 99.3848 58.748C99.8887 58.748 100.305 58.7012 100.633 58.6074C100.961 58.5137 101.248 58.4199 101.494 58.3262V61.8066C101.096 61.9473 100.645 62.082 100.141 62.2109C99.6484 62.3398 99.0273 62.4043 98.2773 62.4043C97.457 62.4043 96.7188 62.2871 96.0625 62.0527C95.418 61.8301 94.8672 61.4844 94.4102 61.0156C93.9531 60.5469 93.6016 59.9551 93.3555 59.2402C93.1094 58.5254 92.9863 57.6816 92.9863 56.709V45.1602ZM105.643 42.0488H109.896V54.5996C109.896 56.123 110.148 57.2539 110.652 57.9922C111.156 58.7305 111.982 59.0996 113.131 59.0996C113.904 59.0996 114.631 58.9297 115.311 58.5898C115.99 58.2383 116.582 57.6992 117.086 56.9727V42.0488H121.34V62H117.561L117.332 59.8906C116.781 60.6523 116.072 61.2617 115.205 61.7188C114.338 62.1758 113.242 62.4043 111.918 62.4043C109.844 62.4043 108.279 61.7773 107.225 60.5234C106.17 59.2578 105.643 57.3301 105.643 54.7402V42.0488ZM126.877 57.6582C127.744 58.1855 128.635 58.5664 129.549 58.8008C130.463 59.0234 131.266 59.1348 131.957 59.1348C132.988 59.1348 133.785 58.9414 134.348 58.5547C134.91 58.1562 135.191 57.6055 135.191 56.9023C135.191 56.5039 135.092 56.1641 134.893 55.8828C134.705 55.5898 134.436 55.3145 134.084 55.0566C133.732 54.7871 133.305 54.5176 132.801 54.248C132.309 53.9785 131.758 53.6562 131.148 53.2812C130.586 52.9414 130.041 52.584 129.514 52.209C128.986 51.8223 128.518 51.3887 128.107 50.9082C127.697 50.4277 127.369 49.8828 127.123 49.2734C126.877 48.6523 126.754 47.9375 126.754 47.1289C126.754 46.332 126.9 45.5996 127.193 44.9316C127.498 44.2637 127.938 43.6895 128.512 43.209C129.098 42.7168 129.818 42.3359 130.674 42.0664C131.541 41.7969 132.531 41.6621 133.645 41.6621C133.938 41.6621 134.266 41.6797 134.629 41.7148C135.004 41.7383 135.379 41.7852 135.754 41.8555C136.141 41.9141 136.51 42.002 136.861 42.1191C137.225 42.2246 137.547 42.3535 137.828 42.5059V45.8105C137.605 45.6816 137.336 45.5586 137.02 45.4414C136.715 45.3125 136.387 45.207 136.035 45.125C135.695 45.0312 135.35 44.9609 134.998 44.9141C134.646 44.8555 134.318 44.8262 134.014 44.8262C133.475 44.8262 133.006 44.8848 132.607 45.002C132.221 45.1191 131.898 45.2773 131.641 45.4766C131.395 45.6641 131.207 45.8926 131.078 46.1621C130.961 46.4316 130.902 46.7129 130.902 47.0059C130.902 47.3809 130.984 47.7207 131.148 48.0254C131.324 48.3184 131.564 48.5996 131.869 48.8691C132.174 49.1387 132.537 49.4082 132.959 49.6777C133.393 49.9355 133.873 50.2227 134.4 50.5391C134.951 50.8672 135.514 51.2188 136.088 51.5938C136.662 51.9688 137.178 52.3965 137.635 52.877C138.104 53.3574 138.484 53.9141 138.777 54.5469C139.082 55.168 139.234 55.8887 139.234 56.709C139.234 57.5527 139.07 58.3262 138.742 59.0293C138.426 59.7207 137.963 60.3184 137.354 60.8223C136.744 61.3262 135.994 61.7188 135.104 62C134.225 62.2695 133.229 62.4043 132.115 62.4043C131.236 62.4043 130.334 62.3105 129.408 62.123C128.494 61.9355 127.65 61.6543 126.877 61.2793V57.6582Z" fill="black"/>
</g>
</svg>
