<svg width="230" height="98" viewBox="0 0 230 98" fill="none" xmlns="http://www.w3.org/2000/svg">
<rect x="2" y="2" width="226" height="94" rx="16" stroke="#009B3A" stroke-width="4"/>
<mask id="mask0_290_331" style="mask-type:alpha" maskUnits="userSpaceOnUse" x="4" y="4" width="222" height="90">
<rect x="4" y="4" width="222" height="90" rx="14" fill="#D9D9D9"/>
</mask>
<g mask="url(#mask0_290_331)">
<rect x="166.992" y="118.992" width="114" height="102" transform="rotate(-41.9 166.992 118.992)" fill="#009B3A"/>
<mask id="mask1_290_331" style="mask-type:alpha" maskUnits="userSpaceOnUse" x="169" y="28" width="40" height="41">
<rect x="169" y="28.5" width="40" height="40" fill="black"/>
</mask>
<g mask="url(#mask1_290_331)">
<path d="M190.597 48.5L185.278 53.8196L187.222 55.8054L194.528 48.5L187.222 41.1946L185.278 43.1804L190.597 48.5ZM189 65.1667C186.694 65.1667 184.528 64.7292 182.5 63.8542C180.472 62.9792 178.708 61.7871 177.208 60.2779C175.708 58.7685 174.521 56.9999 173.646 54.9721C172.771 52.9443 172.333 50.787 172.333 48.5C172.333 46.1945 172.771 44.0278 173.646 42C174.521 39.9722 175.708 38.2083 177.208 36.7083C178.708 35.2083 180.472 34.0208 182.5 33.1458C184.528 32.2708 186.694 31.8333 189 31.8333C191.306 31.8333 193.468 32.2708 195.486 33.1458C197.505 34.0208 199.268 35.2083 200.778 36.7083C202.287 38.2083 203.479 39.9722 204.354 42C205.229 44.0278 205.667 46.1945 205.667 48.5C205.667 50.787 205.229 52.9443 204.354 54.9721C203.479 56.9999 202.287 58.7685 200.778 60.2779C199.268 61.7871 197.505 62.9792 195.486 63.8542C193.468 64.7292 191.306 65.1667 189 65.1667ZM189 62.3888C192.852 62.3888 196.13 61.037 198.833 58.3333C201.537 55.6297 202.889 52.352 202.889 48.5C202.889 44.6297 201.537 41.3474 198.833 38.6529C196.13 35.9585 192.852 34.6113 189 34.6113C185.13 34.6113 181.847 35.9585 179.153 38.6529C176.458 41.3474 175.111 44.6297 175.111 48.5C175.111 52.352 176.458 55.6297 179.153 58.3333C181.847 61.037 185.13 62.3888 189 62.3888Z" fill="black"/>
</g>
<path d="M24.7617 34.3848H29.0684V48.377L37.7168 34.3848H42.1641L34.6758 46.1094L43.0605 61.9824H38.4023L32.1445 49.7129L29.0684 54.6172V62H24.7617V34.3848ZM45.1348 56.5859C45.1348 54.4297 45.8789 52.7891 47.3672 51.6641C48.8672 50.5273 51.0703 49.959 53.9766 49.959H56.5078V48.8691C56.5078 48.2246 56.4316 47.6621 56.2793 47.1816C56.1387 46.6895 55.9043 46.2793 55.5762 45.9512C55.2598 45.623 54.8379 45.377 54.3105 45.2129C53.7949 45.0371 53.1621 44.9492 52.4121 44.9492C51.8965 44.9492 51.4102 44.9902 50.9531 45.0723C50.4961 45.1543 50.0449 45.2656 49.5996 45.4062C49.1543 45.5469 48.6973 45.7168 48.2285 45.916C47.7715 46.1152 47.2852 46.3262 46.7695 46.5488V43.0508C47.2266 42.8281 47.6953 42.6289 48.1758 42.4531C48.6562 42.2773 49.166 42.1309 49.7051 42.0137C50.2441 41.8848 50.8184 41.791 51.4277 41.7324C52.0371 41.6738 52.6992 41.6445 53.4141 41.6445C55.8867 41.6445 57.7266 42.2715 58.9336 43.5254C60.1523 44.7793 60.7617 46.6074 60.7617 49.0098V57.4297C60.7617 57.8633 60.7617 58.2676 60.7617 58.6426C60.7617 59.0176 60.7734 59.3867 60.7969 59.75C60.832 60.1133 60.8848 60.4824 60.9551 60.8574C61.0254 61.2207 61.1309 61.6016 61.2715 62H56.9297C56.8125 61.6836 56.7246 61.3438 56.666 60.9805C56.6074 60.6172 56.5664 60.248 56.543 59.873C55.9219 60.6465 55.166 61.2617 54.2754 61.7188C53.3965 62.1758 52.3652 62.4043 51.1816 62.4043C50.2676 62.4043 49.4355 62.2461 48.6855 61.9297C47.9473 61.6133 47.3145 61.1914 46.7871 60.6641C46.2598 60.125 45.8496 59.5039 45.5566 58.8008C45.2754 58.0977 45.1348 57.3594 45.1348 56.5859ZM49.4414 56.0059C49.4414 56.3926 49.5 56.7734 49.6172 57.1484C49.7344 57.5117 49.916 57.8398 50.1621 58.1328C50.4199 58.4258 50.748 58.6602 51.1465 58.8359C51.5449 59.0117 52.0254 59.0996 52.5879 59.0996C53.3027 59.0996 54 58.9531 54.6797 58.6602C55.3594 58.3672 55.9688 57.9219 56.5078 57.3242V52.8242H54.1348C53.2559 52.8242 52.5176 52.9004 51.9199 53.0527C51.3223 53.2051 50.8359 53.4219 50.4609 53.7031C50.0977 53.9844 49.834 54.3242 49.6699 54.7227C49.5176 55.1094 49.4414 55.5371 49.4414 56.0059ZM66.6504 42.0488H70.3945L70.6406 44.2812C71.25 43.4961 72.0293 42.8633 72.9785 42.3828C73.9395 41.9023 75.1113 41.6621 76.4941 41.6621C78.5449 41.6621 80.1328 42.2891 81.2578 43.543C82.3828 44.7969 82.9453 46.7129 82.9453 49.291V62H78.6914V49.4316C78.6914 47.9082 78.3984 46.7832 77.8125 46.0566C77.2266 45.3184 76.4004 44.9492 75.334 44.9492C74.4551 44.9492 73.6348 45.1367 72.873 45.5117C72.1113 45.875 71.4551 46.4375 70.9043 47.1992V62H66.6504V42.0488ZM88.4121 31.9238H92.666V40.4668L92.5957 43.5254C93.1582 42.9629 93.832 42.5117 94.6172 42.1719C95.4023 41.832 96.3398 41.6621 97.4297 41.6621C98.5781 41.6621 99.6387 41.8789 100.611 42.3125C101.584 42.7344 102.422 43.3672 103.125 44.2109C103.828 45.0547 104.379 46.1094 104.777 47.375C105.176 48.6289 105.375 50.0879 105.375 51.752C105.375 53.5918 105.135 55.1797 104.654 56.5156C104.186 57.8516 103.553 58.959 102.756 59.8379C101.971 60.7051 101.051 61.3496 99.9961 61.7715C98.9531 62.1934 97.8633 62.4043 96.7266 62.4043C95.6953 62.4043 94.8105 62.2871 94.0723 62.0527C93.334 61.8301 92.6953 61.502 92.1562 61.0684L91.9629 62H88.4121V31.9238ZM92.666 58.1328C93.1582 58.4844 93.6797 58.7363 94.2305 58.8887C94.793 59.0293 95.373 59.0996 95.9707 59.0996C96.6855 59.0996 97.3477 58.9707 97.957 58.7129C98.5664 58.4434 99.0879 58.0273 99.5215 57.4648C99.9668 56.8906 100.312 56.1523 100.559 55.25C100.805 54.3477 100.928 53.2578 100.928 51.9805C100.928 50.7617 100.816 49.7129 100.594 48.834C100.371 47.9434 100.055 47.2109 99.6445 46.6367C99.2461 46.0625 98.7598 45.6406 98.1855 45.3711C97.6113 45.0898 96.9668 44.9492 96.252 44.9492C95.584 44.9492 94.9453 45.0664 94.3359 45.3008C93.7266 45.5352 93.1699 45.875 92.666 46.3203V58.1328ZM108.381 56.5859C108.381 54.4297 109.125 52.7891 110.613 51.6641C112.113 50.5273 114.316 49.959 117.223 49.959H119.754V48.8691C119.754 48.2246 119.678 47.6621 119.525 47.1816C119.385 46.6895 119.15 46.2793 118.822 45.9512C118.506 45.623 118.084 45.377 117.557 45.2129C117.041 45.0371 116.408 44.9492 115.658 44.9492C115.143 44.9492 114.656 44.9902 114.199 45.0723C113.742 45.1543 113.291 45.2656 112.846 45.4062C112.4 45.5469 111.943 45.7168 111.475 45.916C111.018 46.1152 110.531 46.3262 110.016 46.5488V43.0508C110.473 42.8281 110.941 42.6289 111.422 42.4531C111.902 42.2773 112.412 42.1309 112.951 42.0137C113.49 41.8848 114.064 41.791 114.674 41.7324C115.283 41.6738 115.945 41.6445 116.66 41.6445C119.133 41.6445 120.973 42.2715 122.18 43.5254C123.398 44.7793 124.008 46.6074 124.008 49.0098V57.4297C124.008 57.8633 124.008 58.2676 124.008 58.6426C124.008 59.0176 124.02 59.3867 124.043 59.75C124.078 60.1133 124.131 60.4824 124.201 60.8574C124.271 61.2207 124.377 61.6016 124.518 62H120.176C120.059 61.6836 119.971 61.3438 119.912 60.9805C119.854 60.6172 119.812 60.248 119.789 59.873C119.168 60.6465 118.412 61.2617 117.521 61.7188C116.643 62.1758 115.611 62.4043 114.428 62.4043C113.514 62.4043 112.682 62.2461 111.932 61.9297C111.193 61.6133 110.561 61.1914 110.033 60.6641C109.506 60.125 109.096 59.5039 108.803 58.8008C108.521 58.0977 108.381 57.3594 108.381 56.5859ZM112.688 56.0059C112.688 56.3926 112.746 56.7734 112.863 57.1484C112.98 57.5117 113.162 57.8398 113.408 58.1328C113.666 58.4258 113.994 58.6602 114.393 58.8359C114.791 59.0117 115.271 59.0996 115.834 59.0996C116.549 59.0996 117.246 58.9531 117.926 58.6602C118.605 58.3672 119.215 57.9219 119.754 57.3242V52.8242H117.381C116.502 52.8242 115.764 52.9004 115.166 53.0527C114.568 53.2051 114.082 53.4219 113.707 53.7031C113.344 53.9844 113.08 54.3242 112.916 54.7227C112.764 55.1094 112.688 55.5371 112.688 56.0059ZM129.896 42.0488H133.641L133.887 44.2812C134.496 43.4961 135.275 42.8633 136.225 42.3828C137.186 41.9023 138.357 41.6621 139.74 41.6621C141.791 41.6621 143.379 42.2891 144.504 43.543C145.629 44.7969 146.191 46.7129 146.191 49.291V62H141.938V49.4316C141.938 47.9082 141.645 46.7832 141.059 46.0566C140.473 45.3184 139.646 44.9492 138.58 44.9492C137.701 44.9492 136.881 45.1367 136.119 45.5117C135.357 45.875 134.701 46.4375 134.15 47.1992V62H129.896V42.0488Z" fill="black"/>
</g>
</svg>
