<svg width="274" height="98" viewBox="0 0 274 98" fill="none" xmlns="http://www.w3.org/2000/svg">
<rect x="2" y="2" width="270" height="94" rx="16" stroke="#009B3A" stroke-width="4"/>
<mask id="mask0_604_1036" style="mask-type:alpha" maskUnits="userSpaceOnUse" x="4" y="4" width="266" height="90">
<rect x="4" y="4" width="266" height="90" rx="14" fill="#D9D9D9"/>
</mask>
<g mask="url(#mask0_604_1036)">
<rect x="202" y="125.133" width="114" height="102" transform="rotate(-41.9 202 125.133)" fill="#009B3A"/>
<path d="M24.7617 34.3848C25.1484 34.3848 25.5703 34.3789 26.0273 34.3672C26.4961 34.3555 26.9707 34.3438 27.4512 34.332C27.9434 34.3203 28.418 34.3086 28.875 34.2969C29.332 34.2852 29.748 34.2793 30.123 34.2793C32.6191 34.2793 34.7109 34.5723 36.3984 35.1582C38.0977 35.7441 39.4629 36.6055 40.4941 37.7422C41.5371 38.8789 42.2812 40.291 42.7266 41.9785C43.1836 43.6543 43.4121 45.5879 43.4121 47.7793C43.4121 50.0762 43.166 52.1152 42.6738 53.8965C42.1934 55.6777 41.4082 57.1777 40.3184 58.3965C39.2402 59.6152 37.8281 60.541 36.082 61.1738C34.3359 61.8066 32.209 62.123 29.7012 62.123C28.8574 62.123 28.0488 62.0996 27.2754 62.0527C26.502 62.0176 25.6641 62 24.7617 62V34.3848ZM29.0684 58.5371C29.291 58.5605 29.502 58.5781 29.7012 58.5898C29.9121 58.5898 30.1641 58.5898 30.457 58.5898C32.0625 58.5898 33.4102 58.3848 34.5 57.9746C35.6016 57.5527 36.4863 56.9082 37.1543 56.041C37.8223 55.1738 38.3027 54.0723 38.5957 52.7363C38.8887 51.3887 39.0352 49.7832 39.0352 47.9199C39.0352 46.0801 38.8887 44.5215 38.5957 43.2441C38.3027 41.9551 37.8164 40.9062 37.1367 40.0977C36.4688 39.2891 35.5723 38.7031 34.4473 38.3398C33.334 37.9766 31.9512 37.7949 30.2988 37.7949C30.0293 37.7949 29.8008 37.8008 29.6133 37.8125C29.4375 37.8125 29.2559 37.8184 29.0684 37.8301V58.5371ZM46.4004 56.5859C46.4004 54.4297 47.1445 52.7891 48.6328 51.6641C50.1328 50.5273 52.3359 49.959 55.2422 49.959H57.7734V48.8691C57.7734 48.2246 57.6973 47.6621 57.5449 47.1816C57.4043 46.6895 57.1699 46.2793 56.8418 45.9512C56.5254 45.623 56.1035 45.377 55.5762 45.2129C55.0605 45.0371 54.4277 44.9492 53.6777 44.9492C53.1621 44.9492 52.6758 44.9902 52.2188 45.0723C51.7617 45.1543 51.3105 45.2656 50.8652 45.4062C50.4199 45.5469 49.9629 45.7168 49.4941 45.916C49.0371 46.1152 48.5508 46.3262 48.0352 46.5488V43.0508C48.4922 42.8281 48.9609 42.6289 49.4414 42.4531C49.9219 42.2773 50.4316 42.1309 50.9707 42.0137C51.5098 41.8848 52.084 41.791 52.6934 41.7324C53.3027 41.6738 53.9648 41.6445 54.6797 41.6445C57.1523 41.6445 58.9922 42.2715 60.1992 43.5254C61.418 44.7793 62.0273 46.6074 62.0273 49.0098V57.4297C62.0273 57.8633 62.0273 58.2676 62.0273 58.6426C62.0273 59.0176 62.0391 59.3867 62.0625 59.75C62.0977 60.1133 62.1504 60.4824 62.2207 60.8574C62.291 61.2207 62.3965 61.6016 62.5371 62H58.1953C58.0781 61.6836 57.9902 61.3438 57.9316 60.9805C57.873 60.6172 57.832 60.248 57.8086 59.873C57.1875 60.6465 56.4316 61.2617 55.541 61.7188C54.6621 62.1758 53.6309 62.4043 52.4473 62.4043C51.5332 62.4043 50.7012 62.2461 49.9512 61.9297C49.2129 61.6133 48.5801 61.1914 48.0527 60.6641C47.5254 60.125 47.1152 59.5039 46.8223 58.8008C46.541 58.0977 46.4004 57.3594 46.4004 56.5859ZM50.707 56.0059C50.707 56.3926 50.7656 56.7734 50.8828 57.1484C51 57.5117 51.1816 57.8398 51.4277 58.1328C51.6855 58.4258 52.0137 58.6602 52.4121 58.8359C52.8105 59.0117 53.291 59.0996 53.8535 59.0996C54.5684 59.0996 55.2656 58.9531 55.9453 58.6602C56.625 58.3672 57.2344 57.9219 57.7734 57.3242V52.8242H55.4004C54.5215 52.8242 53.7832 52.9004 53.1855 53.0527C52.5879 53.2051 52.1016 53.4219 51.7266 53.7031C51.3633 53.9844 51.0996 54.3242 50.9355 54.7227C50.7832 55.1094 50.707 55.5371 50.707 56.0059ZM68.6191 67.5723C68.9941 67.5605 69.3574 67.5195 69.709 67.4492C70.0723 67.3789 70.418 67.2324 70.7461 67.0098C71.0742 66.7871 71.3789 66.4648 71.6602 66.043C71.9531 65.6328 72.2168 65.0645 72.4512 64.3379L73.2949 61.4199H71.7305L64.8047 42.0488H69.375L74.5078 57.7461H74.7715L78.8145 42.0488H83.2441L76.8457 63.3887C76.4941 64.5254 76.125 65.5039 75.7383 66.3242C75.3516 67.1562 74.9473 67.8594 74.5254 68.4336C74.1035 69.0078 73.6641 69.4707 73.207 69.8223C72.75 70.1738 72.2754 70.4492 71.7832 70.6484C71.291 70.8477 70.7812 70.9766 70.2539 71.0352C69.7266 71.1055 69.1816 71.1406 68.6191 71.1406V67.5723ZM86.584 54.6172C86.584 52.8359 86.8008 51.1309 87.2344 49.502C87.668 47.8613 88.2891 46.3379 89.0977 44.9316C89.9062 43.5254 90.8848 42.2539 92.0332 41.1172C93.1816 39.9688 94.4648 38.9902 95.8828 38.1816C97.3008 37.3613 98.8418 36.7344 100.506 36.3008C102.17 35.8555 103.922 35.6328 105.762 35.6328C107.848 35.6328 109.77 35.9258 111.527 36.5117C113.285 37.0977 114.797 37.9707 116.062 39.1309C117.34 40.2793 118.336 41.709 119.051 43.4199C119.766 45.1191 120.123 47.082 120.123 49.3086C120.123 50.9727 119.918 52.5605 119.508 54.0723C119.098 55.584 118.494 56.9199 117.697 58.0801C116.912 59.2285 115.945 60.1484 114.797 60.8398C113.648 61.5195 112.336 61.8594 110.859 61.8594C110.098 61.8594 109.418 61.7715 108.82 61.5957C108.234 61.4082 107.73 61.168 107.309 60.875C106.887 60.5703 106.553 60.2188 106.307 59.8203C106.061 59.4219 105.896 59.0059 105.814 58.5723C104.936 59.7207 104.016 60.5586 103.055 61.0859C102.094 61.6016 101.15 61.877 100.225 61.9121C99.4512 61.9355 98.7363 61.8066 98.0801 61.5254C97.4238 61.2441 96.8496 60.8164 96.3574 60.2422C95.877 59.6562 95.502 58.9355 95.2324 58.0801C94.9629 57.2129 94.8281 56.2109 94.8281 55.0742C94.8281 53.4688 95.0918 52.0039 95.6191 50.6797C96.1582 49.3438 96.873 48.2012 97.7637 47.252C98.666 46.291 99.6973 45.5469 100.857 45.0195C102.029 44.4922 103.242 44.2285 104.496 44.2285C105.305 44.2285 106.008 44.3281 106.605 44.5273C107.203 44.7148 107.707 44.9434 108.117 45.2129L108.838 44.0879H111.914L110.279 54.5293C110.197 55.0215 110.139 55.5312 110.104 56.0586C110.068 56.5742 110.092 57.0488 110.174 57.4824C110.256 57.916 110.42 58.2734 110.666 58.5547C110.912 58.8242 111.281 58.959 111.773 58.959C112.488 58.959 113.145 58.666 113.742 58.0801C114.352 57.4941 114.873 56.7324 115.307 55.7949C115.74 54.8574 116.08 53.8086 116.326 52.6484C116.572 51.4883 116.695 50.3281 116.695 49.168C116.695 47.3164 116.391 45.7402 115.781 44.4395C115.184 43.127 114.375 42.0547 113.355 41.2227C112.336 40.3906 111.152 39.7871 109.805 39.4121C108.469 39.0254 107.068 38.832 105.604 38.832C104.15 38.832 102.756 39.0078 101.42 39.3594C100.084 39.7109 98.8359 40.2148 97.6758 40.8711C96.5273 41.5156 95.4785 42.3066 94.5293 43.2441C93.5801 44.1699 92.7715 45.2188 92.1035 46.3906C91.4355 47.5508 90.9141 48.8223 90.5391 50.2051C90.1758 51.5762 89.9941 53.0352 89.9941 54.582C89.9941 56.6211 90.3105 58.4199 90.9434 59.9785C91.5879 61.5371 92.4785 62.8379 93.6152 63.8809C94.752 64.9355 96.1055 65.7266 97.6758 66.2539C99.2578 66.793 100.992 67.0625 102.879 67.0625C103.875 67.0625 104.83 66.9922 105.744 66.8516C106.658 66.7109 107.514 66.5176 108.311 66.2715C109.119 66.0371 109.857 65.7559 110.525 65.4277C111.205 65.0996 111.803 64.748 112.318 64.373V67.625C111.803 68 111.182 68.334 110.455 68.627C109.74 68.9316 108.955 69.1895 108.1 69.4004C107.244 69.6113 106.342 69.7695 105.393 69.875C104.443 69.9922 103.488 70.0508 102.527 70.0508C99.9727 70.0508 97.7051 69.6699 95.7246 68.9082C93.7559 68.1465 92.0918 67.0801 90.7324 65.709C89.373 64.3496 88.3418 62.7266 87.6387 60.8398C86.9355 58.9414 86.584 56.8672 86.584 54.6172ZM99.2227 54.8457C99.2227 56.1348 99.4219 57.0723 99.8203 57.6582C100.23 58.2324 100.834 58.5195 101.631 58.5195C102.369 58.5195 103.131 58.2852 103.916 57.8164C104.701 57.3359 105.41 56.627 106.043 55.6895L107.203 47.5859C106.934 47.457 106.629 47.3574 106.289 47.2871C105.949 47.2168 105.586 47.1816 105.199 47.1816C104.25 47.1816 103.4 47.3867 102.65 47.7969C101.912 48.207 101.285 48.7637 100.77 49.4668C100.266 50.1582 99.8789 50.9727 99.6094 51.9102C99.3516 52.8359 99.2227 53.8145 99.2227 54.8457ZM125.906 56.832C126.926 57.5352 127.904 58.0273 128.842 58.3086C129.791 58.5898 130.717 58.7305 131.619 58.7305C132.416 58.7305 133.09 58.6367 133.641 58.4492C134.191 58.25 134.631 57.998 134.959 57.6934C135.299 57.377 135.539 57.0254 135.68 56.6387C135.832 56.2402 135.908 55.8418 135.908 55.4434C135.908 54.7988 135.762 54.2129 135.469 53.6855C135.176 53.1582 134.789 52.6543 134.309 52.1738C133.84 51.6934 133.301 51.2305 132.691 50.7852C132.094 50.3398 131.479 49.877 130.846 49.3965C130.213 48.916 129.592 48.4121 128.982 47.8848C128.373 47.3457 127.828 46.7539 127.348 46.1094C126.879 45.4531 126.498 44.7324 126.205 43.9473C125.924 43.1504 125.783 42.2598 125.783 41.2754C125.783 40.1504 125.977 39.1426 126.363 38.252C126.762 37.3496 127.307 36.5879 127.998 35.9668C128.689 35.3457 129.51 34.8711 130.459 34.543C131.408 34.2031 132.439 34.0332 133.553 34.0332C134.443 34.0332 135.334 34.1328 136.225 34.332C137.115 34.5195 137.889 34.7773 138.545 35.1055L138.527 39.1836C137.684 38.6328 136.887 38.2402 136.137 38.0059C135.387 37.7715 134.643 37.6543 133.904 37.6543C133.248 37.6543 132.674 37.7422 132.182 37.918C131.701 38.0938 131.297 38.334 130.969 38.6387C130.652 38.9434 130.412 39.3008 130.248 39.7109C130.096 40.1094 130.02 40.543 130.02 41.0117C130.02 41.6914 130.16 42.3066 130.441 42.8574C130.734 43.3965 131.115 43.9062 131.584 44.3867C132.064 44.8672 132.609 45.3301 133.219 45.7754C133.828 46.209 134.443 46.6602 135.064 47.1289C135.697 47.5977 136.318 48.0898 136.928 48.6055C137.537 49.1211 138.076 49.6953 138.545 50.3281C139.025 50.9492 139.406 51.6465 139.688 52.4199C139.98 53.1934 140.127 54.0664 140.127 55.0391C140.127 56.1289 139.934 57.125 139.547 58.0273C139.172 58.9297 138.627 59.7031 137.912 60.3477C137.209 60.9922 136.348 61.4961 135.328 61.8594C134.32 62.2109 133.189 62.3867 131.936 62.3867C131.42 62.3867 130.887 62.3516 130.336 62.2812C129.785 62.2227 129.24 62.1348 128.701 62.0176C128.174 61.9004 127.664 61.7598 127.172 61.5957C126.691 61.4199 126.264 61.2207 125.889 60.998L125.906 56.832ZM145.119 31.9238H149.373V44.0527C149.959 43.3262 150.697 42.7461 151.588 42.3125C152.479 41.8789 153.58 41.6621 154.893 41.6621C156.943 41.6621 158.496 42.2891 159.551 43.543C160.617 44.7969 161.15 46.7129 161.15 49.291V62H156.896V49.4316C156.896 47.9082 156.633 46.7832 156.105 46.0566C155.59 45.3184 154.799 44.9492 153.732 44.9492C152.818 44.9492 151.992 45.1484 151.254 45.5469C150.527 45.9336 149.9 46.5312 149.373 47.3398V62H145.119V31.9238ZM165.809 52.0684C165.809 50.3926 166.025 48.9102 166.459 47.6211C166.893 46.3203 167.496 45.2305 168.27 44.3516C169.055 43.4727 169.986 42.8047 171.064 42.3477C172.143 41.8906 173.326 41.6621 174.615 41.6621C175.893 41.6621 177.07 41.8848 178.148 42.3301C179.227 42.7754 180.158 43.4316 180.943 44.2988C181.729 45.166 182.338 46.2441 182.771 47.5332C183.217 48.8105 183.439 50.2871 183.439 51.9629C183.439 53.6387 183.217 55.127 182.771 56.4277C182.338 57.7285 181.729 58.8242 180.943 59.7148C180.17 60.5938 179.238 61.2617 178.148 61.7188C177.07 62.1758 175.893 62.4043 174.615 62.4043C173.326 62.4043 172.143 62.1816 171.064 61.7363C169.986 61.2793 169.055 60.6172 168.27 59.75C167.496 58.8711 166.893 57.793 166.459 56.5156C166.025 55.2266 165.809 53.7441 165.809 52.0684ZM174.615 59.0996C175.283 59.0996 175.887 58.9648 176.426 58.6953C176.977 58.4141 177.445 57.9863 177.832 57.4121C178.23 56.8262 178.535 56.082 178.746 55.1797C178.969 54.2773 179.08 53.2051 179.08 51.9629C179.08 50.7207 178.969 49.6602 178.746 48.7812C178.535 47.8906 178.23 47.1641 177.832 46.6016C177.445 46.0273 176.977 45.6113 176.426 45.3535C175.887 45.084 175.283 44.9492 174.615 44.9492C173.959 44.9492 173.355 45.0898 172.805 45.3711C172.254 45.6406 171.779 46.0684 171.381 46.6543C170.994 47.2285 170.689 47.9668 170.467 48.8691C170.256 49.7598 170.15 50.8262 170.15 52.0684C170.15 53.3105 170.256 54.377 170.467 55.2676C170.689 56.1465 170.994 56.873 171.381 57.4473C171.779 58.0098 172.254 58.4258 172.805 58.6953C173.355 58.9648 173.959 59.0996 174.615 59.0996ZM191.807 64.4785V71.1406H187.553V42.0488H191.314L191.543 43.6133C192.082 43.0273 192.738 42.5586 193.512 42.207C194.297 41.8438 195.252 41.6621 196.377 41.6621C197.525 41.6621 198.58 41.8789 199.541 42.3125C200.514 42.7344 201.352 43.3672 202.055 44.2109C202.758 45.0547 203.309 46.1094 203.707 47.375C204.105 48.6289 204.305 50.0879 204.305 51.752C204.305 53.5918 204.07 55.1797 203.602 56.5156C203.133 57.8516 202.5 58.959 201.703 59.8379C200.906 60.7051 199.986 61.3496 198.943 61.7715C197.9 62.1934 196.811 62.4043 195.674 62.4043C194.865 62.4043 194.139 62.3105 193.494 62.123C192.85 61.9473 192.264 61.6895 191.736 61.3496L191.807 64.4785ZM191.807 58.291C192.264 58.5957 192.75 58.8066 193.266 58.9238C193.781 59.041 194.332 59.0996 194.918 59.0996C195.633 59.0996 196.295 58.9707 196.904 58.7129C197.514 58.4434 198.035 58.0273 198.469 57.4648C198.914 56.8906 199.26 56.1523 199.506 55.25C199.752 54.3477 199.875 53.2578 199.875 51.9805C199.875 50.7617 199.764 49.7129 199.541 48.834C199.318 47.9434 199.002 47.2109 198.592 46.6367C198.193 46.0625 197.707 45.6406 197.133 45.3711C196.559 45.0898 195.914 44.9492 195.199 44.9492C193.887 44.9492 192.756 45.377 191.807 46.2324V58.291Z" fill="black"/>
<path d="M240.264 48.6667L234.945 53.9863L236.889 55.9721L244.195 48.6667L236.889 41.3613L234.945 43.3471L240.264 48.6667ZM238.667 65.3333C236.361 65.3333 234.194 64.8958 232.167 64.0208C230.139 63.1458 228.375 61.9538 226.875 60.4446C225.375 58.9351 224.188 57.1665 223.313 55.1388C222.438 53.111 222 50.9536 222 48.6667C222 46.3611 222.438 44.1944 223.313 42.1667C224.188 40.1389 225.375 38.375 226.875 36.875C228.375 35.375 230.139 34.1875 232.167 33.3125C234.194 32.4375 236.361 32 238.667 32C240.972 32 243.134 32.4375 245.153 33.3125C247.171 34.1875 248.935 35.375 250.445 36.875C251.954 38.375 253.146 40.1389 254.021 42.1667C254.896 44.1944 255.333 46.3611 255.333 48.6667C255.333 50.9536 254.896 53.111 254.021 55.1388C253.146 57.1665 251.954 58.9351 250.445 60.4446C248.935 61.9538 247.171 63.1458 245.153 64.0208C243.134 64.8958 240.972 65.3333 238.667 65.3333ZM238.667 62.5554C242.519 62.5554 245.796 61.2036 248.5 58.5C251.204 55.7964 252.555 52.5186 252.555 48.6667C252.555 44.7964 251.204 41.514 248.5 38.8196C245.796 36.1251 242.519 34.7779 238.667 34.7779C234.796 34.7779 231.514 36.1251 228.82 38.8196C226.125 41.514 224.778 44.7964 224.778 48.6667C224.778 52.5186 226.125 55.7964 228.82 58.5C231.514 61.2036 234.796 62.5554 238.667 62.5554Z" fill="black"/>
</g>
</svg>
