<svg width="126" height="126" viewBox="0 0 126 126" fill="none" xmlns="http://www.w3.org/2000/svg">
<path d="M0 63C0 97.7939 28.2061 126 63 126C97.7939 126 126 97.7939 126 63C126 28.2061 97.7939 0 63 0C28.2061 0 0 28.2061 0 63ZM125.279 63C125.279 97.3955 97.3955 125.279 63 125.279C28.6045 125.279 0.721397 97.3955 0.721397 63C0.721397 28.6045 28.6045 0.721397 63 0.721397C97.3955 0.721397 125.279 28.6045 125.279 63Z" fill="white"/>
<path d="M59 47L76 63L59 79" stroke="white" stroke-width="7"/>
</svg>
