<svg width="95" height="55" viewBox="0 0 95 55" fill="none" xmlns="http://www.w3.org/2000/svg">
<path d="M9.5 55C6.8875 55 4.65183 54.2313 2.793 52.6939C0.934167 51.1565 0.00316667 49.3062 0 47.1429V7.85714C0 5.69643 0.931 3.84738 2.793 2.31C4.655 0.772618 6.89067 0.00261905 9.5 0H85.5C88.1125 0 90.3497 0.769999 92.2117 2.31C94.0737 3.85 95.0032 5.69905 95 7.85714V47.1429C95 49.3036 94.0706 51.1539 92.2117 52.6939C90.3529 54.2339 88.1157 55.0026 85.5 55H9.5ZM9.5 47.1429H85.5V7.85714H9.5V47.1429ZM28.5 43.2143H66.5V35.3571H28.5V43.2143ZM14.25 31.4286H23.75V23.5714H14.25V31.4286ZM28.5 31.4286H38V23.5714H28.5V31.4286ZM42.75 31.4286H52.25V23.5714H42.75V31.4286ZM57 31.4286H66.5V23.5714H57V31.4286ZM71.25 31.4286H80.75V23.5714H71.25V31.4286ZM14.25 19.6429H23.75V11.7857H14.25V19.6429ZM28.5 19.6429H38V11.7857H28.5V19.6429ZM42.75 19.6429H52.25V11.7857H42.75V19.6429ZM57 19.6429H66.5V11.7857H57V19.6429ZM71.25 19.6429H80.75V11.7857H71.25V19.6429Z" fill="#757575"/>
</svg>
