<svg width="98" height="129" viewBox="0 0 98 129" fill="none" xmlns="http://www.w3.org/2000/svg">
<path d="M14.159 15.8973C23.3749 5.75936 35.7945 0.0828305 48.7297 0.0963375C61.6848 0.0963375 74.1208 5.76965 83.3004 15.8973C91.6127 25.0563 95.9429 35.3091 97.0873 45.9573C98.2259 56.5132 96.1906 67.1086 92.3088 77.0452C84.6041 96.8128 69.2892 114.788 54.5996 126.484C52.8874 127.852 50.8349 128.588 48.7297 128.588C46.6244 128.588 44.5719 127.852 42.8597 126.484C28.1701 114.788 12.8552 96.8062 5.14466 77.0452C1.26873 67.1086 -0.760678 56.5132 0.372013 45.9507C1.5165 35.3091 5.84669 25.0629 14.159 15.8973ZM32.5062 51.1627C32.5062 46.3569 34.2155 41.748 37.258 38.3497C40.3005 34.9515 44.427 33.0424 48.7297 33.0424C53.0324 33.0424 57.1589 34.9515 60.2014 38.3497C63.2439 41.748 64.9531 46.3569 64.9531 51.1627C64.9531 55.9686 63.2439 60.5775 60.2014 63.9758C57.1589 67.374 53.0324 69.2831 48.7297 69.2831C44.427 69.2831 40.3005 67.374 37.258 63.9758C34.2155 60.5775 32.5062 55.9686 32.5062 51.1627Z" fill="#9BCA98"/>
<path d="M53.0264 45.257V80.1661H48.7991V49.6888H48.5946L40.0718 55.3479V51.0524L48.7991 45.257H53.0264Z" fill="white"/>
</svg>
