<svg width="98" height="130" viewBox="0 0 98 130" fill="none" xmlns="http://www.w3.org/2000/svg">
<path d="M14.6296 16.6105C23.8416 6.47695 36.2558 0.802868 49.1854 0.816369C62.135 0.816369 74.5657 6.48724 83.7412 16.6105C92.05 25.7656 96.3783 36.014 97.5223 46.6575C98.6604 57.2089 96.6259 67.7998 92.7458 77.7321C85.0444 97.4912 69.7361 115.459 55.0528 127.15C53.3414 128.517 51.2898 129.253 49.1854 129.253C47.0811 129.253 45.0294 128.517 43.318 127.15C28.6347 115.459 13.3264 97.4846 5.61915 77.7321C1.74489 67.7998 -0.283641 57.2089 0.848563 46.651C1.99256 36.014 6.32088 25.7721 14.6296 16.6105ZM32.969 51.8608C32.969 47.057 34.6775 42.45 37.7186 39.0533C40.7598 35.6565 44.8845 33.7482 49.1854 33.7482C53.4863 33.7482 57.611 35.6565 60.6522 39.0533C63.6934 42.45 65.4019 47.057 65.4019 51.8608C65.4019 56.6645 63.6934 61.2715 60.6522 64.6683C57.611 68.065 53.4863 69.9733 49.1854 69.9733C44.8845 69.9733 40.7598 68.065 37.7186 64.6683C34.6775 61.2715 32.969 56.6645 32.969 51.8608Z" fill="#006927"/>
<path d="M35.3506 72.7393V69.2621L50.6915 44.9893H53.2143V50.3757H51.5097L39.9188 68.7166V68.9893H60.5779V72.7393H35.3506ZM51.7824 79.8984V71.6825V70.0632V44.9893H55.8052V79.8984H51.7824Z" fill="white"/>
</svg>
