<svg width="99" height="129" viewBox="0 0 99 129" fill="none" xmlns="http://www.w3.org/2000/svg">
<path d="M15.0586 16.2691C24.2705 6.13558 36.6848 0.461498 49.6144 0.475C62.564 0.475 74.9946 6.14587 84.1702 16.2691C92.4789 25.4242 96.8072 35.6726 97.9512 46.3162C99.0893 56.8676 97.0549 67.4585 93.1747 77.3907C85.4734 97.1498 70.1651 115.117 55.4818 126.808C53.7704 128.176 51.7187 128.911 49.6144 128.911C47.51 128.911 45.4584 128.176 43.747 126.808C29.0637 115.117 13.7554 97.1433 6.04811 77.3907C2.17385 67.4585 0.145314 56.8676 1.27752 46.3096C2.42152 35.6726 6.74984 25.4308 15.0586 16.2691ZM33.3979 51.5194C33.3979 46.7157 35.1064 42.1087 38.1476 38.7119C41.1888 35.3152 45.3135 33.4069 49.6144 33.4069C53.9152 33.4069 58.04 35.3152 61.0811 38.7119C64.1223 42.1087 65.8308 46.7157 65.8308 51.5194C65.8308 56.3232 64.1223 60.9302 61.0811 64.3269C58.04 67.7237 53.9152 69.632 49.6144 69.632C45.3135 69.632 41.1888 67.7237 38.1476 64.3269C35.1064 60.9302 33.3979 56.3232 33.3979 51.5194Z" fill="#009B3A"/>
<path d="M50.3393 81.0073C48.0893 81.0073 46.0836 80.6209 44.3222 79.8482C42.5722 79.0755 41.1802 78.0016 40.1461 76.6266C39.1234 75.2403 38.5665 73.6323 38.4756 71.8028H42.7711C42.862 72.9278 43.2484 73.8993 43.9302 74.7175C44.612 75.5243 45.504 76.1493 46.6063 76.5925C47.7086 77.0357 48.9302 77.2573 50.2711 77.2573C51.7711 77.2573 53.1006 76.9959 54.2597 76.4732C55.4188 75.9505 56.3279 75.2232 56.987 74.2914C57.6461 73.3596 57.9756 72.28 57.9756 71.0528C57.9756 69.7687 57.6574 68.638 57.0211 67.6607C56.3847 66.6721 55.4529 65.8993 54.2256 65.3425C52.9984 64.7857 51.4984 64.5073 49.7256 64.5073H46.9302V60.7573H49.7256C51.112 60.7573 52.3279 60.5073 53.3734 60.0073C54.4302 59.5073 55.254 58.8028 55.8449 57.8937C56.4472 56.9846 56.7484 55.9164 56.7484 54.6891C56.7484 53.5073 56.487 52.4789 55.9643 51.6039C55.4415 50.7289 54.7029 50.0471 53.7484 49.5584C52.8052 49.0698 51.6915 48.8255 50.4074 48.8255C49.2029 48.8255 48.0665 49.0471 46.9984 49.4903C45.9415 49.9221 45.0779 50.5528 44.4074 51.3823C43.737 52.2005 43.3734 53.1891 43.3165 54.3482H39.2256C39.2938 52.5187 39.8449 50.9164 40.879 49.5414C41.9131 48.155 43.2654 47.0755 44.9359 46.3028C46.6177 45.53 48.4643 45.1437 50.4756 45.1437C52.6347 45.1437 54.487 45.5812 56.0324 46.4562C57.5779 47.3198 58.7654 48.4618 59.5949 49.8823C60.4245 51.3028 60.8393 52.8368 60.8393 54.4846C60.8393 56.4505 60.3222 58.1266 59.2881 59.513C58.2654 60.8993 56.8734 61.8596 55.112 62.3937V62.6664C57.3165 63.03 59.0381 63.9675 60.2768 65.4789C61.5154 66.9789 62.1347 68.8368 62.1347 71.0528C62.1347 72.9505 61.6177 74.655 60.5836 76.1664C59.5609 77.6664 58.1631 78.8482 56.3904 79.7118C54.6177 80.5755 52.6006 81.0073 50.3393 81.0073Z" fill="white"/>
</svg>
