<svg width="98" height="130" viewBox="0 0 98 130" fill="none" xmlns="http://www.w3.org/2000/svg">
<path d="M14.4624 16.4744C23.6743 6.3409 36.0886 0.666821 49.0182 0.680322C61.9677 0.680322 74.3984 6.35119 83.5739 16.4744C91.8827 25.6295 96.211 35.8779 97.355 46.5215C98.4931 57.0729 96.4586 67.6638 92.5785 77.596C84.8771 97.3551 69.5688 115.323 54.8856 127.014C53.1741 128.381 51.1225 129.117 49.0182 129.117C46.9138 129.117 44.8622 128.381 43.1507 127.014C28.4675 115.323 13.1592 97.3486 5.45191 77.596C1.57765 67.6638 -0.450877 57.0729 0.681327 46.5149C1.82532 35.8779 6.15364 25.6361 14.4624 16.4744ZM32.8017 51.7247C32.8017 46.921 34.5102 42.314 37.5514 38.9172C40.5926 35.5205 44.7173 33.6122 49.0182 33.6122C53.319 33.6122 57.4437 35.5205 60.4849 38.9172C63.5261 42.314 65.2346 46.921 65.2346 51.7247C65.2346 56.5285 63.5261 61.1355 60.4849 64.5322C57.4437 67.929 53.319 69.8373 49.0182 69.8373C44.7173 69.8373 40.5926 67.929 37.5514 64.5322C34.5102 61.1355 32.8017 56.5285 32.8017 51.7247Z" fill="#418E5E"/>
<path d="M38.9205 80.7354V77.6672L50.4432 65.0535C51.7955 63.5763 52.9092 62.2922 53.7842 61.2013C54.6592 60.099 55.3069 59.0649 55.7273 58.099C56.1592 57.1217 56.3751 56.099 56.3751 55.0308C56.3751 53.8035 56.0796 52.741 55.4887 51.8433C54.9092 50.9456 54.1137 50.2524 53.1023 49.7638C52.091 49.2751 50.9546 49.0308 49.6932 49.0308C48.3523 49.0308 47.1819 49.3092 46.1819 49.866C45.1932 50.4115 44.4262 51.1785 43.8807 52.1672C43.3467 53.1558 43.0796 54.3149 43.0796 55.6444H39.0569C39.0569 53.599 39.5285 51.8035 40.4717 50.2581C41.4148 48.7126 42.6989 47.5081 44.3239 46.6444C45.9603 45.7808 47.7955 45.349 49.8296 45.349C51.8751 45.349 53.6876 45.7808 55.2671 46.6444C56.8467 47.5081 58.0853 48.6728 58.983 50.1388C59.8807 51.6047 60.3296 53.2354 60.3296 55.0308C60.3296 56.3149 60.0967 57.5706 59.6307 58.7979C59.1762 60.0138 58.3807 61.3717 57.2444 62.8717C56.1194 64.3604 54.5569 66.1785 52.5569 68.3263L44.716 76.7126V76.9854H60.9432V80.7354H38.9205Z" fill="white"/>
</svg>
