<svg width="522" height="120" viewBox="0 0 522 120" fill="none" xmlns="http://www.w3.org/2000/svg">
<g clip-path="url(#clip0_142_47)">
<path d="M78.3438 113.348H31.4017L4.79482 6.51324H22.9894C29.1542 6.51324 34.4841 10.7909 35.8541 16.8098L52.957 91.8302H56.7458L76.3745 6.51324H105.101L78.3438 113.348Z" fill="#4F4F4F"/>
<path d="M107.541 87.8535C107.541 70.2914 118.179 63.7352 139.756 63.7352C145.835 63.7352 152.364 64.81 157.394 66.4867C157.394 56.5771 153.284 52.2994 141.747 52.2994C132.478 52.2994 123.21 54.4275 114.99 58.5547V38.4131C123.959 34.5868 133.976 32.4587 146.306 32.4587C169.702 32.4587 182.181 42.3683 182.181 64.6595V104.943C171.693 111.499 157.865 115.175 143.887 115.175C117.751 115.175 107.562 106.018 107.562 87.8535H107.541ZM157.394 94.4097V81.1253C153.284 79.5991 148.575 78.9972 144.315 78.9972C135.047 78.9972 132.307 82.3506 132.307 87.8535C132.307 93.3565 135.496 96.7098 144.315 96.7098C149.024 96.7098 153.584 96.1079 157.394 94.4312V94.4097Z" fill="#4F4F4F"/>
<path d="M274.246 113.348H249.48V43.2926C257.85 37.3383 270.308 32.4587 283.986 32.4587C293.854 32.4587 301.624 34.4364 307.232 38.4131C313.311 34.5868 320.61 32.4587 328.659 32.4587C352.376 32.4587 363.614 43.4431 363.614 66.3362V113.348H338.848V67.11C338.848 56.5771 335.209 52.1489 326.989 52.1489C323.5 52.1489 320.311 52.9013 317.421 54.277C318.341 57.7808 318.641 61.7576 318.641 66.3362V113.348H294.025V67.11C294.025 56.5771 290.386 52.1489 282.166 52.1489C279.426 52.1489 276.836 52.9013 274.268 54.1266V113.348H274.246Z" fill="#4F4F4F"/>
<path d="M403.877 82.8235C405.247 92.1312 410.877 96.7098 421.965 96.7098C431.233 96.7098 439.603 95.334 448.871 91.3788V110.446C440.052 113.498 431.084 115.175 421.815 115.175C392.939 115.175 378.812 101.439 378.812 77.6215V69.9905C378.812 46.1731 392.939 32.4372 418.775 32.4372C444.612 32.4372 454.651 45.3992 454.651 60.2099C454.651 75.9233 446.303 82.802 431.555 82.802H403.899L403.877 82.8235ZM403.727 66.0352H421.515C427.295 66.0352 429.564 65.2829 429.564 60.2313C429.564 55.6527 426.374 50.9236 418.626 50.9236C409.357 50.9236 404.498 56.2546 403.727 66.0352Z" fill="#4F4F4F"/>
<path d="M476.228 34.2859V21.9043C476.228 21.3239 476.249 20.722 476.292 20.1416C476.977 11.7152 483.313 4.79358 491.447 2.57951L500.994 -0.0214844V34.2644H521.821V53.9546H500.994V87.3806C500.994 93.1845 502.963 95.6135 507.672 95.6135C512.381 95.6135 516.791 94.8612 521.8 93.0125V111.176C516.341 113.777 508.421 115.153 500.972 115.153C483.334 115.153 476.206 105.394 476.206 89.2077V53.9546H463.748V34.2644H476.206L476.228 34.2859Z" fill="#4F4F4F"/>
<path d="M228.053 119.022C228.053 119.022 202.174 124.654 201.232 93.3994V6.40576H225.057L224.693 98.5154C224.693 98.5154 225.057 116.529 228.053 119.044V119.022Z" fill="#4F4F4F"/>
<path d="M4.94465 6.51324H0C0 6.51324 5.69384 7.15812 6.80692 13.9938" fill="#4F4F4F"/>
</g>
<defs>
<clipPath id="clip0_142_47">
<rect width="521.821" height="119.431" fill="white"/>
</clipPath>
</defs>
</svg>
