<svg width="126" height="126" viewBox="0 0 126 126" fill="none" xmlns="http://www.w3.org/2000/svg">
<path d="M126 63C126 97.7939 97.7939 126 63 126C28.2061 126 0 97.7939 0 63C0 28.2061 28.2061 0 63 0C97.7939 0 126 28.2061 126 63ZM0.721397 63C0.721397 97.3955 28.6045 125.279 63 125.279C97.3955 125.279 125.279 97.3955 125.279 63C125.279 28.6045 97.3955 0.721397 63 0.721397C28.6045 0.721397 0.721397 28.6045 0.721397 63Z" fill="white"/>
<path d="M67 47L50 63L67 79" stroke="white" stroke-width="7"/>
</svg>
