<svg width="24" height="14" viewBox="0 0 24 14" fill="none" xmlns="http://www.w3.org/2000/svg">
<path d="M11.5936 8.68225L19.704 0.571886C20.0852 0.190629 20.5705 6.78296e-07 21.1597 7.29806e-07C21.7489 7.81317e-07 22.2341 0.190629 22.6154 0.571886C22.9966 0.953143 23.1873 1.43838 23.1873 2.02759C23.1873 2.61681 22.9966 3.10204 22.6154 3.4833L13.0493 13.0494C12.6334 13.4653 12.1481 13.6732 11.5936 13.6732C11.039 13.6732 10.5538 13.4653 10.1379 13.0494L0.571808 3.4833C0.190551 3.10204 -7.80789e-05 2.61681 -7.80274e-05 2.02759C-7.79759e-05 1.43838 0.190552 0.953141 0.571808 0.571884C0.953065 0.190627 1.4383 -9.9429e-07 2.02751 -9.42779e-07C2.61673 -8.91269e-07 3.10196 0.190628 3.48322 0.571884L11.5936 8.68225Z" fill="#1C1B1F"/>
</svg>
