<svg width="115" height="108" viewBox="0 0 115 108" fill="none" xmlns="http://www.w3.org/2000/svg">
<path d="M50.5232 2.99631L41.0162 12.5675L80.5472 52.3659H114.512L66.8962 4.42791C62.0209 -0.112291 58.3237 -0.241242 55.8861 0.133117C54.6672 0.320297 52.6087 0.814835 50.5232 2.99631Z" fill="#009B3A"/>
<path d="M50.5232 104.491L41.0162 94.9202L80.5472 55.1219L114.512 55.1219L66.8962 103.06C62.0209 107.6 58.3237 107.729 55.8861 107.355C54.6672 107.167 52.6087 106.673 50.5232 104.491Z" fill="#009B3A"/>
<path d="M34.8565 55.1219H0.593506L39.5641 94.626L56.6342 77.1148L34.8565 55.1219Z" fill="#747070"/>
<path d="M34.8565 52.3659L0.593506 52.3658L39.5641 13.7805L56.6342 30.8845L34.8565 52.3659Z" fill="#747070"/>
</svg>
